<svg width="12" height="12" viewBox="0 0 12 12" fill="none" xmlns="http://www.w3.org/2000/svg">
<g clip-path="url(#clip0_57_71)">
<path d="M1.66665 2.33333C1.57824 2.33333 1.49346 2.36845 1.43094 2.43096C1.36843 2.49348 1.33331 2.57826 1.33331 2.66667V10C1.33331 10.0884 1.36843 10.1732 1.43094 10.2357C1.49346 10.2982 1.57824 10.3333 1.66665 10.3333C1.75505 10.3333 1.83984 10.2982 1.90235 10.2357C1.96486 10.1732 1.99998 10.0884 1.99998 10V2.66667C1.99998 2.57826 1.96486 2.49348 1.90235 2.43096C1.83984 2.36845 1.75505 2.33333 1.66665 2.33333Z" fill="black"/>
<path d="M3.00002 2.33333C2.91161 2.33333 2.82683 2.36845 2.76432 2.43096C2.70181 2.49348 2.66669 2.57826 2.66669 2.66667V8.66667C2.66669 8.75507 2.70181 8.83986 2.76432 8.90237C2.82683 8.96488 2.91161 9 3.00002 9C3.08843 9 3.17321 8.96488 3.23572 8.90237C3.29823 8.83986 3.33335 8.75507 3.33335 8.66667V2.66667C3.33335 2.57826 3.29823 2.49348 3.23572 2.43096C3.17321 2.36845 3.08843 2.33333 3.00002 2.33333Z" fill="black"/>
<path d="M4.33333 2.33333C4.24493 2.33333 4.16014 2.36845 4.09763 2.43096C4.03512 2.49348 4 2.57826 4 2.66667V8.66667C4 8.75507 4.03512 8.83986 4.09763 8.90237C4.16014 8.96488 4.24493 9 4.33333 9C4.42174 9 4.50652 8.96488 4.56904 8.90237C4.63155 8.83986 4.66667 8.75507 4.66667 8.66667V2.66667C4.66667 2.57826 4.63155 2.49348 4.56904 2.43096C4.50652 2.36845 4.42174 2.33333 4.33333 2.33333Z" fill="black"/>
<path d="M5.66665 2.33333C5.57824 2.33333 5.49346 2.36845 5.43094 2.43096C5.36843 2.49348 5.33331 2.57826 5.33331 2.66667V8.66667C5.33331 8.75507 5.36843 8.83986 5.43094 8.90237C5.49346 8.96488 5.57824 9 5.66665 9C5.75505 9 5.83984 8.96488 5.90235 8.90237C5.96486 8.83986 5.99998 8.75507 5.99998 8.66667V2.66667C5.99998 2.57826 5.96486 2.49348 5.90235 2.43096C5.83984 2.36845 5.75505 2.33333 5.66665 2.33333Z" fill="black"/>
<path d="M7.00002 2.33333C6.91161 2.33333 6.82683 2.36845 6.76432 2.43096C6.70181 2.49348 6.66669 2.57826 6.66669 2.66667V8.66667C6.66669 8.75507 6.70181 8.83986 6.76432 8.90237C6.82683 8.96488 6.91161 9 7.00002 9C7.08843 9 7.17321 8.96488 7.23572 8.90237C7.29823 8.83986 7.33335 8.75507 7.33335 8.66667V2.66667C7.33335 2.57826 7.29823 2.49348 7.23572 2.43096C7.17321 2.36845 7.08843 2.33333 7.00002 2.33333Z" fill="black"/>
<path d="M8.33333 2.33333C8.24493 2.33333 8.16014 2.36845 8.09763 2.43096C8.03512 2.49348 8 2.57826 8 2.66667V8.66667C8 8.75507 8.03512 8.83986 8.09763 8.90237C8.16014 8.96488 8.24493 9 8.33333 9C8.42174 9 8.50652 8.96488 8.56904 8.90237C8.63155 8.83986 8.66667 8.75507 8.66667 8.66667V2.66667C8.66667 2.57826 8.63155 2.49348 8.56904 2.43096C8.50652 2.36845 8.42174 2.33333 8.33333 2.33333Z" fill="black"/>
<path d="M9.66665 2.33333C9.57824 2.33333 9.49346 2.36845 9.43094 2.43096C9.36843 2.49348 9.33331 2.57826 9.33331 2.66667V8.66667C9.33331 8.75507 9.36843 8.83986 9.43094 8.90237C9.49346 8.96488 9.57824 9 9.66665 9C9.75505 9 9.83984 8.96488 9.90235 8.90237C9.96486 8.83986 9.99998 8.75507 9.99998 8.66667V2.66667C9.99998 2.57826 9.96486 2.49348 9.90235 2.43096C9.83984 2.36845 9.75505 2.33333 9.66665 2.33333Z" fill="black"/>
<path d="M11 2.33333C10.9116 2.33333 10.8268 2.36845 10.7643 2.43096C10.7018 2.49348 10.6667 2.57826 10.6667 2.66667V10C10.6667 10.0884 10.7018 10.1732 10.7643 10.2357C10.8268 10.2982 10.9116 10.3333 11 10.3333C11.0884 10.3333 11.1732 10.2982 11.2357 10.2357C11.2982 10.1732 11.3334 10.0884 11.3334 10V2.66667C11.3334 2.57826 11.2982 2.49348 11.2357 2.43096C11.1732 2.36845 11.0884 2.33333 11 2.33333Z" fill="black"/>
</g>
<defs>
<clipPath id="clip0_57_71">
<rect width="12" height="12" fill="white"/>
</clipPath>
</defs>
</svg>
