<svg width="22" height="22" viewBox="0 0 22 22" fill="none" xmlns="http://www.w3.org/2000/svg">
<g clip-path="url(#clip0_57_72)">
<path d="M3.05557 4.27778C2.89349 4.27778 2.73805 4.34216 2.62345 4.45677C2.50884 4.57137 2.44446 4.72681 2.44446 4.88889V18.3333C2.44446 18.4954 2.50884 18.6508 2.62345 18.7655C2.73805 18.8801 2.89349 18.9444 3.05557 18.9444C3.21765 18.9444 3.37308 18.8801 3.48769 18.7655C3.6023 18.6508 3.66668 18.4954 3.66668 18.3333V4.88889C3.66668 4.72681 3.6023 4.57137 3.48769 4.45677C3.37308 4.34216 3.21765 4.27778 3.05557 4.27778Z" fill="black"/>
<path d="M5.50003 4.27778C5.33795 4.27778 5.18251 4.34216 5.06791 4.45677C4.9533 4.57137 4.88892 4.72681 4.88892 4.88889V15.8889C4.88892 16.051 4.9533 16.2064 5.06791 16.321C5.18251 16.4356 5.33795 16.5 5.50003 16.5C5.6621 16.5 5.81754 16.4356 5.93215 16.321C6.04675 16.2064 6.11114 16.051 6.11114 15.8889V4.88889C6.11114 4.72681 6.04675 4.57137 5.93215 4.45677C5.81754 4.34216 5.6621 4.27778 5.50003 4.27778Z" fill="black"/>
<path d="M7.94442 4.27778C7.78235 4.27778 7.62691 4.34216 7.5123 4.45677C7.3977 4.57137 7.33331 4.72681 7.33331 4.88889V15.8889C7.33331 16.051 7.3977 16.2064 7.5123 16.321C7.62691 16.4356 7.78235 16.5 7.94442 16.5C8.1065 16.5 8.26194 16.4356 8.37654 16.321C8.49115 16.2064 8.55554 16.051 8.55554 15.8889V4.88889C8.55554 4.72681 8.49115 4.57137 8.37654 4.45677C8.26194 4.34216 8.1065 4.27778 7.94442 4.27778Z" fill="black"/>
<path d="M10.3889 4.27778C10.2268 4.27778 10.0714 4.34216 9.95676 4.45677C9.84216 4.57137 9.77777 4.72681 9.77777 4.88889V15.8889C9.77777 16.051 9.84216 16.2064 9.95676 16.321C10.0714 16.4356 10.2268 16.5 10.3889 16.5C10.551 16.5 10.7064 16.4356 10.821 16.321C10.9356 16.2064 11 16.051 11 15.8889V4.88889C11 4.72681 10.9356 4.57137 10.821 4.45677C10.7064 4.34216 10.551 4.27778 10.3889 4.27778Z" fill="black"/>
<path d="M12.8333 4.27778C12.6713 4.27778 12.5158 4.34216 12.4012 4.45677C12.2866 4.57137 12.2222 4.72681 12.2222 4.88889V15.8889C12.2222 16.051 12.2866 16.2064 12.4012 16.321C12.5158 16.4356 12.6713 16.5 12.8333 16.5C12.9954 16.5 13.1509 16.4356 13.2655 16.321C13.3801 16.2064 13.4445 16.051 13.4445 15.8889V4.88889C13.4445 4.72681 13.3801 4.57137 13.2655 4.45677C13.1509 4.34216 12.9954 4.27778 12.8333 4.27778Z" fill="black"/>
<path d="M15.2778 4.27778C15.1157 4.27778 14.9603 4.34216 14.8457 4.45677C14.7311 4.57137 14.6667 4.72681 14.6667 4.88889V15.8889C14.6667 16.051 14.7311 16.2064 14.8457 16.321C14.9603 16.4356 15.1157 16.5 15.2778 16.5C15.4399 16.5 15.5953 16.4356 15.7099 16.321C15.8245 16.2064 15.8889 16.051 15.8889 15.8889V4.88889C15.8889 4.72681 15.8245 4.57137 15.7099 4.45677C15.5953 4.34216 15.4399 4.27778 15.2778 4.27778Z" fill="black"/>
<path d="M17.7222 4.27778C17.5601 4.27778 17.4047 4.34216 17.2901 4.45677C17.1755 4.57137 17.1111 4.72681 17.1111 4.88889V15.8889C17.1111 16.051 17.1755 16.2064 17.2901 16.321C17.4047 16.4356 17.5601 16.5 17.7222 16.5C17.8843 16.5 18.0397 16.4356 18.1543 16.321C18.2689 16.2064 18.3333 16.051 18.3333 15.8889V4.88889C18.3333 4.72681 18.2689 4.57137 18.1543 4.45677C18.0397 4.34216 17.8843 4.27778 17.7222 4.27778Z" fill="black"/>
<path d="M20.1667 4.27778C20.0046 4.27778 19.8491 4.34216 19.7345 4.45677C19.6199 4.57137 19.5555 4.72681 19.5555 4.88889V18.3333C19.5555 18.4954 19.6199 18.6508 19.7345 18.7655C19.8491 18.8801 20.0046 18.9444 20.1667 18.9444C20.3287 18.9444 20.4842 18.8801 20.5988 18.7655C20.7134 18.6508 20.7778 18.4954 20.7778 18.3333V4.88889C20.7778 4.72681 20.7134 4.57137 20.5988 4.45677C20.4842 4.34216 20.3287 4.27778 20.1667 4.27778Z" fill="black"/>
</g>
<defs>
<clipPath id="clip0_57_72">
<rect width="22" height="22" fill="white"/>
</clipPath>
</defs>
</svg>
