<svg width="44" height="46" viewBox="0 0 44 46" fill="none" xmlns="http://www.w3.org/2000/svg">
<g clip-path="url(#clip0_57_65)">
<path d="M43 21.7241C43 23.919 42.1571 26.024 40.6569 27.5761C39.1566 29.1281 37.1217 30 35 30C32.8783 30 30.8434 29.1281 29.3431 27.5761C27.8429 26.024 27 23.919 27 21.7241C27 19.5292 27.8429 17.4242 29.3431 15.8722C30.8434 14.3202 32.8783 13.4483 35 13.4483C37.1217 13.4483 39.1566 14.3202 40.6569 15.8722C42.1571 17.4242 43 19.5292 43 21.7241V21.7241ZM35.5 18.1034C35.5 17.9663 35.4473 17.8347 35.3536 17.7377C35.2598 17.6407 35.1326 17.5862 35 17.5862C34.8674 17.5862 34.7402 17.6407 34.6464 17.7377C34.5527 17.8347 34.5 17.9663 34.5 18.1034V24.0962L32.354 21.8752C32.2601 21.778 32.1328 21.7235 32 21.7235C31.8672 21.7235 31.7399 21.778 31.646 21.8752C31.5521 21.9723 31.4994 22.104 31.4994 22.2414C31.4994 22.3787 31.5521 22.5105 31.646 22.6076L34.646 25.711C34.6924 25.7592 34.7476 25.7974 34.8084 25.8235C34.8691 25.8496 34.9342 25.863 35 25.863C35.0658 25.863 35.1309 25.8496 35.1916 25.8235C35.2524 25.7974 35.3076 25.7592 35.354 25.711L38.354 22.6076C38.4479 22.5105 38.5006 22.3787 38.5006 22.2414C38.5006 22.104 38.4479 21.9723 38.354 21.8752C38.2601 21.778 38.1328 21.7235 38 21.7235C37.8672 21.7235 37.7399 21.778 37.646 21.8752L35.5 24.0962V18.1034Z" fill="black"/>
</g>
<path d="M10.25 8.14656C10.25 7.52924 10.4871 6.93721 10.909 6.5007C11.331 6.0642 11.9033 5.81897 12.5 5.81897H30.5C31.0967 5.81897 31.669 6.0642 32.091 6.5007C32.5129 6.93721 32.75 7.52924 32.75 8.14656V19.7845C32.75 20.4018 32.5129 20.9938 32.091 21.4303C31.669 21.8668 31.0967 22.1121 30.5 22.1121H12.5C11.9033 22.1121 11.331 21.8668 10.909 21.4303C10.4871 20.9938 10.25 20.4018 10.25 19.7845V8.14656Z" stroke="black" stroke-width="2" stroke-linecap="round" stroke-linejoin="round"/>
<path d="M21.5 17.4569C23.364 17.4569 24.875 15.8938 24.875 13.9655C24.875 12.0373 23.364 10.4741 21.5 10.4741C19.636 10.4741 18.125 12.0373 18.125 13.9655C18.125 15.8938 19.636 17.4569 21.5 17.4569Z" stroke="black" stroke-width="2" stroke-linecap="round" stroke-linejoin="round"/>
<path d="M10.25 10.4741C11.4435 10.4741 12.5881 9.98369 13.432 9.11067C14.2759 8.23766 14.75 7.0536 14.75 5.81897M28.25 22.1121C28.25 20.8774 28.7241 19.6934 29.568 18.8204C30.4119 17.9474 31.5565 17.4569 32.75 17.4569" stroke="black" stroke-width="2" stroke-linecap="round" stroke-linejoin="round"/>
<path d="M2.8892 44H0.568892V37.4545H2.90838C3.56676 37.4545 4.13352 37.5856 4.60866 37.8477C5.08381 38.1076 5.44922 38.4815 5.7049 38.9695C5.96271 39.4574 6.09162 40.0412 6.09162 40.7209C6.09162 41.4027 5.96271 41.9886 5.7049 42.4787C5.44922 42.9687 5.08168 43.3448 4.60227 43.6069C4.125 43.869 3.55398 44 2.8892 44ZM1.95277 42.8143H2.83168C3.24077 42.8143 3.58487 42.7418 3.86399 42.5969C4.14524 42.4499 4.35618 42.223 4.4968 41.9162C4.63956 41.6072 4.71094 41.2088 4.71094 40.7209C4.71094 40.2372 4.63956 39.842 4.4968 39.5352C4.35618 39.2283 4.14631 39.0025 3.86719 38.8576C3.58807 38.7127 3.24396 38.6403 2.83487 38.6403H1.95277V42.8143ZM9.32839 44.0959C8.82342 44.0959 8.38876 43.9936 8.02441 43.7891C7.6622 43.5824 7.38308 43.2905 7.18706 42.9134C6.99103 42.5341 6.89302 42.0856 6.89302 41.5678C6.89302 41.0629 6.99103 40.6197 7.18706 40.2383C7.38308 39.8569 7.659 39.5597 8.01483 39.3466C8.37278 39.1335 8.79252 39.027 9.27406 39.027C9.59792 39.027 9.89941 39.0792 10.1785 39.1836C10.4598 39.2859 10.7048 39.4403 10.9136 39.647C11.1246 39.8537 11.2886 40.1136 11.4058 40.4268C11.523 40.7379 11.5816 41.1023 11.5816 41.5199V41.8938H7.43635V41.0501H10.3C10.3 40.854 10.2574 40.6804 10.1721 40.5291C10.0869 40.3778 9.96866 40.2596 9.81738 40.1744C9.66824 40.087 9.49458 40.0433 9.29643 40.0433C9.08976 40.0433 8.90652 40.0913 8.74672 40.1871C8.58904 40.2809 8.46547 40.4077 8.37598 40.5675C8.28649 40.7251 8.24068 40.9009 8.23855 41.0948V41.897C8.23855 42.1399 8.28329 42.3498 8.37278 42.5266C8.4644 42.7035 8.59331 42.8398 8.7595 42.9357C8.92569 43.0316 9.12278 43.0795 9.35076 43.0795C9.50204 43.0795 9.64054 43.0582 9.76625 43.0156C9.89196 42.973 9.99956 42.9091 10.089 42.8239C10.1785 42.7386 10.2467 42.6342 10.2936 42.5107L11.5528 42.5938C11.4889 42.8963 11.3579 43.1605 11.1597 43.3864C10.9637 43.6101 10.7101 43.7848 10.3991 43.9105C10.0901 44.0341 9.73322 44.0959 9.32839 44.0959ZM12.4701 45.8409V39.0909H13.8124V39.9155H13.8731C13.9328 39.7834 14.0191 39.6491 14.132 39.5128C14.2471 39.3743 14.3962 39.2592 14.5795 39.1676C14.7648 39.0739 14.9949 39.027 15.2698 39.027C15.6278 39.027 15.958 39.1207 16.2606 39.3082C16.5631 39.4936 16.805 39.7738 16.9861 40.1488C17.1672 40.5217 17.2577 40.9893 17.2577 41.5518C17.2577 42.0994 17.1693 42.5618 16.9925 42.9389C16.8177 43.3139 16.5791 43.5984 16.2765 43.7923C15.9761 43.984 15.6395 44.0799 15.2666 44.0799C15.0024 44.0799 14.7776 44.0362 14.5922 43.9489C14.409 43.8615 14.2588 43.7518 14.1416 43.6197C14.0244 43.4854 13.9349 43.3501 13.8731 43.2138H13.8316V45.8409H12.4701ZM13.8028 41.5455C13.8028 41.8374 13.8433 42.092 13.9243 42.3093C14.0052 42.5266 14.1224 42.696 14.2758 42.8175C14.4292 42.9368 14.6157 42.9964 14.8351 42.9964C15.0567 42.9964 15.2442 42.9357 15.3976 42.8143C15.551 42.6907 15.6672 42.5202 15.746 42.3029C15.827 42.0835 15.8675 41.831 15.8675 41.5455C15.8675 41.2621 15.828 41.0128 15.7492 40.7976C15.6704 40.5824 15.5542 40.4141 15.4008 40.2926C15.2474 40.1712 15.0589 40.1104 14.8351 40.1104C14.6135 40.1104 14.426 40.169 14.2726 40.2862C14.1214 40.4034 14.0052 40.5696 13.9243 40.7848C13.8433 41 13.8028 41.2536 13.8028 41.5455ZM20.3834 44.0959C19.887 44.0959 19.4577 43.9904 19.0954 43.7795C18.7354 43.5664 18.4573 43.2702 18.2613 42.891C18.0653 42.5096 17.9672 42.0675 17.9672 41.5646C17.9672 41.0575 18.0653 40.6143 18.2613 40.2351C18.4573 39.8537 18.7354 39.5575 19.0954 39.3466C19.4577 39.1335 19.887 39.027 20.3834 39.027C20.8799 39.027 21.3081 39.1335 21.6682 39.3466C22.0305 39.5575 22.3096 39.8537 22.5056 40.2351C22.7016 40.6143 22.7996 41.0575 22.7996 41.5646C22.7996 42.0675 22.7016 42.5096 22.5056 42.891C22.3096 43.2702 22.0305 43.5664 21.6682 43.7795C21.3081 43.9904 20.8799 44.0959 20.3834 44.0959ZM20.3898 43.0412C20.6157 43.0412 20.8042 42.9773 20.9555 42.8494C21.1068 42.7195 21.2208 42.5426 21.2975 42.3189C21.3763 42.0952 21.4157 41.8406 21.4157 41.555C21.4157 41.2695 21.3763 41.0149 21.2975 40.7912C21.2208 40.5675 21.1068 40.3906 20.9555 40.2607C20.8042 40.1307 20.6157 40.0657 20.3898 40.0657C20.1618 40.0657 19.9701 40.1307 19.8145 40.2607C19.6611 40.3906 19.545 40.5675 19.4662 40.7912C19.3895 41.0149 19.3511 41.2695 19.3511 41.555C19.3511 41.8406 19.3895 42.0952 19.4662 42.3189C19.545 42.5426 19.6611 42.7195 19.8145 42.8494C19.9701 42.9773 20.1618 43.0412 20.3898 43.0412ZM27.7694 40.4908L26.523 40.5675C26.5017 40.4609 26.4559 40.3651 26.3856 40.2798C26.3153 40.1925 26.2226 40.1232 26.1075 40.0721C25.9946 40.0188 25.8593 39.9922 25.7016 39.9922C25.4907 39.9922 25.3128 40.0369 25.1679 40.1264C25.023 40.2138 24.9506 40.331 24.9506 40.478C24.9506 40.5952 24.9974 40.6942 25.0912 40.7752C25.1849 40.8562 25.3458 40.9212 25.5738 40.9702L26.4623 41.1491C26.9395 41.2472 27.2954 41.4048 27.5297 41.6222C27.7641 41.8395 27.8813 42.125 27.8813 42.4787C27.8813 42.8004 27.7865 43.0827 27.5969 43.3256C27.4094 43.5685 27.1515 43.7582 26.8234 43.8945C26.4974 44.0288 26.1214 44.0959 25.6952 44.0959C25.0454 44.0959 24.5276 43.9606 24.142 43.69C23.7584 43.4173 23.5336 43.0465 23.4676 42.5778L24.8067 42.5075C24.8472 42.7056 24.9452 42.8569 25.1008 42.9613C25.2563 43.0636 25.4555 43.1147 25.6984 43.1147C25.9371 43.1147 26.1288 43.0689 26.2737 42.9773C26.4207 42.8835 26.4953 42.7631 26.4974 42.6161C26.4953 42.4925 26.4431 42.3913 26.3408 42.3125C26.2385 42.2315 26.0809 42.1697 25.8678 42.1271L25.0177 41.9577C24.5383 41.8619 24.1814 41.6957 23.947 41.4592C23.7148 41.2227 23.5986 40.9212 23.5986 40.5547C23.5986 40.2393 23.6839 39.9677 23.8543 39.7397C24.0269 39.5117 24.2687 39.3359 24.5798 39.2124C24.893 39.0888 25.2595 39.027 25.6792 39.027C26.2993 39.027 26.7872 39.158 27.143 39.4201C27.501 39.6822 27.7098 40.0391 27.7694 40.4908ZM28.7386 44V39.0909H30.1001V44H28.7386ZM29.4226 38.4581C29.2202 38.4581 29.0465 38.391 28.9016 38.2567C28.7589 38.1204 28.6875 37.9574 28.6875 37.7678C28.6875 37.5803 28.7589 37.4194 28.9016 37.2852C29.0465 37.1488 29.2202 37.0806 29.4226 37.0806C29.625 37.0806 29.7976 37.1488 29.9403 37.2852C30.0852 37.4194 30.1577 37.5803 30.1577 37.7678C30.1577 37.9574 30.0852 38.1204 29.9403 38.2567C29.7976 38.391 29.625 38.4581 29.4226 38.4581ZM33.8019 39.0909V40.1136H30.8456V39.0909H33.8019ZM31.5168 37.9148H32.8783V42.4915C32.8783 42.6172 32.8975 42.7152 32.9358 42.7855C32.9742 42.8537 33.0274 42.9016 33.0956 42.9293C33.1659 42.957 33.2469 42.9709 33.3385 42.9709C33.4024 42.9709 33.4664 42.9656 33.5303 42.9549C33.5942 42.9421 33.6432 42.9325 33.6773 42.9261L33.8914 43.9393C33.8232 43.9606 33.7274 43.9851 33.6038 44.0128C33.4802 44.0426 33.33 44.0607 33.1531 44.0671C32.825 44.0799 32.5374 44.0362 32.2902 43.9361C32.0452 43.8359 31.8545 43.6804 31.7181 43.4695C31.5818 43.2585 31.5146 42.9922 31.5168 42.6705V37.9148ZM36.0887 44.0927C35.7755 44.0927 35.4964 44.0384 35.2513 43.9297C35.0063 43.8189 34.8124 43.6559 34.6697 43.4407C34.529 43.2234 34.4587 42.9528 34.4587 42.6289C34.4587 42.3562 34.5088 42.1271 34.6089 41.9418C34.7091 41.7564 34.8454 41.6072 35.018 41.4943C35.1906 41.3814 35.3866 41.2962 35.6061 41.2386C35.8277 41.1811 36.0599 41.1406 36.3028 41.1172C36.5883 41.0874 36.8184 41.0597 36.9932 41.0341C37.1679 41.0064 37.2947 40.9659 37.3735 40.9126C37.4523 40.8594 37.4917 40.7805 37.4917 40.6761V40.657C37.4917 40.4545 37.4278 40.2979 37.3 40.1871C37.1743 40.0763 36.9953 40.021 36.7631 40.021C36.518 40.021 36.3231 40.0753 36.1782 40.1839C36.0333 40.2905 35.9374 40.4247 35.8905 40.5866L34.6313 40.4844C34.6952 40.1861 34.8209 39.9283 35.0084 39.7109C35.1959 39.4915 35.4378 39.3232 35.7339 39.206C36.0322 39.0866 36.3774 39.027 36.7694 39.027C37.0422 39.027 37.3032 39.0589 37.5525 39.1229C37.8039 39.1868 38.0265 39.2859 38.2204 39.4201C38.4165 39.5543 38.5709 39.7269 38.6839 39.9379C38.7968 40.1467 38.8532 40.397 38.8532 40.6889V44H37.5621V43.3192H37.5237C37.4449 43.4727 37.3394 43.608 37.2073 43.7251C37.0752 43.8402 36.9165 43.9308 36.7311 43.9968C36.5457 44.0607 36.3316 44.0927 36.0887 44.0927ZM36.4786 43.1531C36.6789 43.1531 36.8557 43.1136 37.0091 43.0348C37.1626 42.9538 37.2829 42.8452 37.3703 42.7088C37.4577 42.5724 37.5013 42.418 37.5013 42.2454V41.7244C37.4587 41.7521 37.4001 41.7777 37.3256 41.8011C37.2531 41.8224 37.1711 41.8427 37.0795 41.8619C36.9878 41.8789 36.8962 41.8949 36.8046 41.9098C36.713 41.9226 36.6299 41.9343 36.5553 41.945C36.3955 41.9684 36.2559 42.0057 36.1366 42.0568C36.0173 42.108 35.9246 42.1772 35.8586 42.2646C35.7925 42.3498 35.7595 42.4563 35.7595 42.5842C35.7595 42.7695 35.8266 42.9112 35.9608 43.0092C36.0972 43.1051 36.2698 43.1531 36.4786 43.1531ZM39.9095 44V39.0909H41.2295V39.9474H41.2806C41.3701 39.6428 41.5203 39.4126 41.7313 39.2571C41.9422 39.0994 42.1851 39.0206 42.46 39.0206C42.5281 39.0206 42.6017 39.0249 42.6805 39.0334C42.7593 39.0419 42.8286 39.0536 42.8882 39.0685V40.2766C42.8243 40.2575 42.7359 40.2404 42.623 40.2255C42.51 40.2106 42.4067 40.2031 42.3129 40.2031C42.1127 40.2031 41.9337 40.2468 41.776 40.3342C41.6205 40.4194 41.4969 40.5387 41.4053 40.6921C41.3158 40.8455 41.271 41.0224 41.271 41.2227V44H39.9095Z" fill="black"/>
<defs>
<clipPath id="clip0_57_65">
<rect width="16" height="16.5517" fill="white" transform="translate(27 13.4483)"/>
</clipPath>
</defs>
</svg>
