<svg width="71" height="46" viewBox="0 0 71 46" fill="none" xmlns="http://www.w3.org/2000/svg">
<path d="M42.4091 6.09091V20.4091H28.0909V6.09091H42.4091ZM42.4091 4.5H28.0909C27.669 4.5 27.2643 4.66761 26.966 4.96597C26.6676 5.26432 26.5 5.66897 26.5 6.09091V20.4091C26.5 20.831 26.6676 21.2357 26.966 21.534C27.2643 21.8324 27.669 22 28.0909 22H42.4091C42.831 22 43.2357 21.8324 43.534 21.534C43.8324 21.2357 44 20.831 44 20.4091V6.09091C44 5.66897 43.8324 5.26432 43.534 4.96597C43.2357 4.66761 42.831 4.5 42.4091 4.5V4.5Z" fill="black"/>
<path d="M23.5625 12.5H22V1.5625C22 1.1481 22.1646 0.750671 22.4576 0.457646C22.7507 0.16462 23.1481 0 23.5625 0H34.5V1.5625H23.5625V12.5Z" fill="black"/>
<path d="M0.568892 44V37.4545H3.15128C3.64773 37.4545 4.07067 37.5494 4.4201 37.739C4.76953 37.9265 5.03587 38.1875 5.21911 38.522C5.40447 38.8544 5.49716 39.2379 5.49716 39.6726C5.49716 40.1072 5.40341 40.4908 5.21591 40.8232C5.02841 41.1555 4.75675 41.4144 4.40092 41.5998C4.04723 41.7852 3.61896 41.8778 3.11612 41.8778H1.47017V40.7688H2.8924C3.15874 40.7688 3.3782 40.723 3.55078 40.6314C3.7255 40.5376 3.85547 40.4087 3.9407 40.2447C4.02805 40.0785 4.07173 39.8878 4.07173 39.6726C4.07173 39.4553 4.02805 39.2656 3.9407 39.1037C3.85547 38.9396 3.7255 38.8129 3.55078 38.7234C3.37607 38.6317 3.15447 38.5859 2.88601 38.5859H1.95277V44H0.568892ZM6.37047 44V39.0909H7.73198V44H6.37047ZM7.05442 38.4581C6.85201 38.4581 6.67836 38.391 6.53347 38.2567C6.39071 38.1204 6.31934 37.9574 6.31934 37.7678C6.31934 37.5803 6.39071 37.4194 6.53347 37.2852C6.67836 37.1488 6.85201 37.0806 7.05442 37.0806C7.25684 37.0806 7.42942 37.1488 7.57218 37.2852C7.71706 37.4194 7.78951 37.5803 7.78951 37.7678C7.78951 37.9574 7.71706 38.1204 7.57218 38.2567C7.42942 38.391 7.25684 38.4581 7.05442 38.4581ZM9.9604 39.0909L10.8617 40.8072L11.7853 39.0909H13.182L11.7598 41.5455L13.2203 44H11.8301L10.8617 42.3029L9.90927 44H8.50302L9.9604 41.5455L8.55415 39.0909H9.9604ZM21.8744 39.7461H20.4745C20.449 39.565 20.3968 39.4041 20.3179 39.2635C20.2391 39.1207 20.1379 38.9993 20.0143 38.8991C19.8907 38.799 19.748 38.7223 19.586 38.669C19.4262 38.6158 19.2526 38.5891 19.0651 38.5891C18.7263 38.5891 18.4312 38.6733 18.1798 38.8416C17.9284 39.0078 17.7334 39.2507 17.5949 39.5703C17.4564 39.8878 17.3872 40.2734 17.3872 40.7273C17.3872 41.1939 17.4564 41.5859 17.5949 41.9034C17.7355 42.2209 17.9316 42.4606 18.183 42.6225C18.4344 42.7844 18.7252 42.8654 19.0555 42.8654C19.2409 42.8654 19.4124 42.8409 19.57 42.7919C19.7298 42.7429 19.8715 42.6715 19.9951 42.5778C20.1187 42.4819 20.221 42.3658 20.3019 42.2294C20.385 42.093 20.4426 41.9375 20.4745 41.7628L21.8744 41.7692C21.8382 42.0696 21.7476 42.3594 21.6027 42.6385C21.46 42.9155 21.2671 43.1637 21.0242 43.3832C20.7835 43.6005 20.4958 43.7731 20.1613 43.9009C19.8289 44.0266 19.4529 44.0895 19.0331 44.0895C18.4493 44.0895 17.9273 43.9574 17.4671 43.6932C17.009 43.429 16.6468 43.0465 16.3804 42.5458C16.1162 42.0451 15.9841 41.4389 15.9841 40.7273C15.9841 40.0135 16.1183 39.4062 16.3868 38.9055C16.6553 38.4048 17.0196 38.0234 17.4798 37.7614C17.9401 37.4972 18.4578 37.3651 19.0331 37.3651C19.4124 37.3651 19.7639 37.4183 20.0878 37.5249C20.4138 37.6314 20.7025 37.7869 20.9539 37.9915C21.2053 38.1939 21.4099 38.4421 21.5676 38.7362C21.7274 39.0302 21.8296 39.3668 21.8744 39.7461ZM25.0592 44.0959C24.5628 44.0959 24.1334 43.9904 23.7712 43.7795C23.4111 43.5664 23.1331 43.2702 22.9371 42.891C22.741 42.5096 22.643 42.0675 22.643 41.5646C22.643 41.0575 22.741 40.6143 22.9371 40.2351C23.1331 39.8537 23.4111 39.5575 23.7712 39.3466C24.1334 39.1335 24.5628 39.027 25.0592 39.027C25.5557 39.027 25.9839 39.1335 26.344 39.3466C26.7062 39.5575 26.9854 39.8537 27.1814 40.2351C27.3774 40.6143 27.4754 41.0575 27.4754 41.5646C27.4754 42.0675 27.3774 42.5096 27.1814 42.891C26.9854 43.2702 26.7062 43.5664 26.344 43.7795C25.9839 43.9904 25.5557 44.0959 25.0592 44.0959ZM25.0656 43.0412C25.2915 43.0412 25.48 42.9773 25.6313 42.8494C25.7826 42.7195 25.8966 42.5426 25.9733 42.3189C26.0521 42.0952 26.0915 41.8406 26.0915 41.555C26.0915 41.2695 26.0521 41.0149 25.9733 40.7912C25.8966 40.5675 25.7826 40.3906 25.6313 40.2607C25.48 40.1307 25.2915 40.0657 25.0656 40.0657C24.8376 40.0657 24.6459 40.1307 24.4903 40.2607C24.3369 40.3906 24.2208 40.5675 24.142 40.7912C24.0653 41.0149 24.0269 41.2695 24.0269 41.555C24.0269 41.8406 24.0653 42.0952 24.142 42.3189C24.2208 42.5426 24.3369 42.7195 24.4903 42.8494C24.6459 42.9773 24.8376 43.0412 25.0656 43.0412ZM28.3607 45.8409V39.0909H29.703V39.9155H29.7638C29.8234 39.7834 29.9097 39.6491 30.0226 39.5128C30.1377 39.3743 30.2868 39.2592 30.4701 39.1676C30.6555 39.0739 30.8856 39.027 31.1604 39.027C31.5184 39.027 31.8486 39.1207 32.1512 39.3082C32.4537 39.4936 32.6956 39.7738 32.8767 40.1488C33.0578 40.5217 33.1483 40.9893 33.1483 41.5518C33.1483 42.0994 33.0599 42.5618 32.8831 42.9389C32.7084 43.3139 32.4697 43.5984 32.1672 43.7923C31.8667 43.984 31.5301 44.0799 31.1572 44.0799C30.893 44.0799 30.6682 44.0362 30.4829 43.9489C30.2996 43.8615 30.1494 43.7518 30.0322 43.6197C29.915 43.4854 29.8256 43.3501 29.7638 43.2138H29.7222V45.8409H28.3607ZM29.6934 41.5455C29.6934 41.8374 29.7339 42.092 29.8149 42.3093C29.8959 42.5266 30.0131 42.696 30.1665 42.8175C30.3199 42.9368 30.5063 42.9964 30.7258 42.9964C30.9474 42.9964 31.1349 42.9357 31.2883 42.8143C31.4417 42.6907 31.5578 42.5202 31.6366 42.3029C31.7176 42.0835 31.7581 41.831 31.7581 41.5455C31.7581 41.2621 31.7187 41.0128 31.6398 40.7976C31.561 40.5824 31.4449 40.4141 31.2915 40.2926C31.1381 40.1712 30.9495 40.1104 30.7258 40.1104C30.5042 40.1104 30.3167 40.169 30.1633 40.2862C30.012 40.4034 29.8959 40.5696 29.8149 40.7848C29.7339 41 29.6934 41.2536 29.6934 41.5455ZM34.056 44V39.0909H35.4175V44H34.056ZM34.74 38.4581C34.5376 38.4581 34.3639 38.391 34.219 38.2567C34.0763 38.1204 34.0049 37.9574 34.0049 37.7678C34.0049 37.5803 34.0763 37.4194 34.219 37.2852C34.3639 37.1488 34.5376 37.0806 34.74 37.0806C34.9424 37.0806 35.115 37.1488 35.2577 37.2852C35.4026 37.4194 35.4751 37.5803 35.4751 37.7678C35.4751 37.9574 35.4026 38.1204 35.2577 38.2567C35.115 38.391 34.9424 38.4581 34.74 38.4581ZM37.908 44.0927C37.5948 44.0927 37.3157 44.0384 37.0707 43.9297C36.8256 43.8189 36.6317 43.6559 36.489 43.4407C36.3484 43.2234 36.2781 42.9528 36.2781 42.6289C36.2781 42.3562 36.3281 42.1271 36.4283 41.9418C36.5284 41.7564 36.6648 41.6072 36.8374 41.4943C37.0099 41.3814 37.206 41.2962 37.4254 41.2386C37.647 41.1811 37.8793 41.1406 38.1222 41.1172C38.4077 41.0874 38.6378 41.0597 38.8125 41.0341C38.9872 41.0064 39.114 40.9659 39.1928 40.9126C39.2717 40.8594 39.3111 40.7805 39.3111 40.6761V40.657C39.3111 40.4545 39.2472 40.2979 39.1193 40.1871C38.9936 40.0763 38.8146 40.021 38.5824 40.021C38.3374 40.021 38.1424 40.0753 37.9975 40.1839C37.8526 40.2905 37.7567 40.4247 37.7099 40.5866L36.4506 40.4844C36.5146 40.1861 36.6403 39.9283 36.8278 39.7109C37.0153 39.4915 37.2571 39.3232 37.5533 39.206C37.8516 39.0866 38.1967 39.027 38.5888 39.027C38.8615 39.027 39.1225 39.0589 39.3718 39.1229C39.6232 39.1868 39.8459 39.2859 40.0398 39.4201C40.2358 39.5543 40.3903 39.7269 40.5032 39.9379C40.6161 40.1467 40.6726 40.397 40.6726 40.6889V44H39.3814V43.3192H39.343C39.2642 43.4727 39.1587 43.608 39.0266 43.7251C38.8945 43.8402 38.7358 43.9308 38.5504 43.9968C38.3651 44.0607 38.1509 44.0927 37.908 44.0927ZM38.2979 43.1531C38.4982 43.1531 38.6751 43.1136 38.8285 43.0348C38.9819 42.9538 39.1023 42.8452 39.1896 42.7088C39.277 42.5724 39.3207 42.418 39.3207 42.2454V41.7244C39.2781 41.7521 39.2195 41.7777 39.1449 41.8011C39.0724 41.8224 38.9904 41.8427 38.8988 41.8619C38.8072 41.8789 38.7156 41.8949 38.6239 41.9098C38.5323 41.9226 38.4492 41.9343 38.3746 41.945C38.2148 41.9684 38.0753 42.0057 37.956 42.0568C37.8366 42.108 37.744 42.1772 37.6779 42.2646C37.6119 42.3498 37.5788 42.4563 37.5788 42.5842C37.5788 42.7695 37.646 42.9112 37.7802 43.0092C37.9165 43.1051 38.0891 43.1531 38.2979 43.1531ZM46.0491 44.0959C45.5441 44.0959 45.1095 43.9936 44.7451 43.7891C44.3829 43.5824 44.1038 43.2905 43.9078 42.9134C43.7117 42.5341 43.6137 42.0856 43.6137 41.5678C43.6137 41.0629 43.7117 40.6197 43.9078 40.2383C44.1038 39.8569 44.3797 39.5597 44.7355 39.3466C45.0935 39.1335 45.5132 39.027 45.9948 39.027C46.3186 39.027 46.6201 39.0792 46.8992 39.1836C47.1805 39.2859 47.4255 39.4403 47.6343 39.647C47.8453 39.8537 48.0093 40.1136 48.1265 40.4268C48.2437 40.7379 48.3023 41.1023 48.3023 41.5199V41.8938H44.157V41.0501H47.0207C47.0207 40.854 46.9781 40.6804 46.8928 40.5291C46.8076 40.3778 46.6894 40.2596 46.5381 40.1744C46.3889 40.087 46.2153 40.0433 46.0171 40.0433C45.8105 40.0433 45.6272 40.0913 45.4674 40.1871C45.3097 40.2809 45.1862 40.4077 45.0967 40.5675C45.0072 40.7251 44.9614 40.9009 44.9593 41.0948V41.897C44.9593 42.1399 45.004 42.3498 45.0935 42.5266C45.1851 42.7035 45.314 42.8398 45.4802 42.9357C45.6464 43.0316 45.8435 43.0795 46.0715 43.0795C46.2227 43.0795 46.3612 43.0582 46.4869 43.0156C46.6127 42.973 46.7203 42.9091 46.8097 42.8239C46.8992 42.7386 46.9674 42.6342 47.0143 42.5107L48.2735 42.5938C48.2096 42.8963 48.0786 43.1605 47.8804 43.3864C47.6844 43.6101 47.4308 43.7848 47.1198 43.9105C46.8108 44.0341 46.4539 44.0959 46.0491 44.0959ZM57.0746 39.7461H55.6747C55.6491 39.565 55.5969 39.4041 55.5181 39.2635C55.4393 39.1207 55.3381 38.9993 55.2145 38.8991C55.0909 38.799 54.9482 38.7223 54.7862 38.669C54.6264 38.6158 54.4528 38.5891 54.2653 38.5891C53.9265 38.5891 53.6314 38.6733 53.38 38.8416C53.1286 39.0078 52.9336 39.2507 52.7951 39.5703C52.6566 39.8878 52.5874 40.2734 52.5874 40.7273C52.5874 41.1939 52.6566 41.5859 52.7951 41.9034C52.9357 42.2209 53.1317 42.4606 53.3832 42.6225C53.6346 42.7844 53.9254 42.8654 54.2557 42.8654C54.4411 42.8654 54.6126 42.8409 54.7702 42.7919C54.93 42.7429 55.0717 42.6715 55.1953 42.5778C55.3189 42.4819 55.4212 42.3658 55.5021 42.2294C55.5852 42.093 55.6428 41.9375 55.6747 41.7628L57.0746 41.7692C57.0384 42.0696 56.9478 42.3594 56.8029 42.6385C56.6602 42.9155 56.4673 43.1637 56.2244 43.3832C55.9837 43.6005 55.696 43.7731 55.3615 43.9009C55.0291 44.0266 54.6531 44.0895 54.2333 44.0895C53.6495 44.0895 53.1275 43.9574 52.6673 43.6932C52.2092 43.429 51.8469 43.0465 51.5806 42.5458C51.3164 42.0451 51.1843 41.4389 51.1843 40.7273C51.1843 40.0135 51.3185 39.4062 51.587 38.9055C51.8555 38.4048 52.2198 38.0234 52.68 37.7614C53.1403 37.4972 53.658 37.3651 54.2333 37.3651C54.6126 37.3651 54.9641 37.4183 55.288 37.5249C55.614 37.6314 55.9027 37.7869 56.1541 37.9915C56.4055 38.1939 56.6101 38.4421 56.7678 38.7362C56.9276 39.0302 57.0298 39.3668 57.0746 39.7461ZM60.2594 44.0959C59.763 44.0959 59.3336 43.9904 58.9714 43.7795C58.6113 43.5664 58.3333 43.2702 58.1373 42.891C57.9412 42.5096 57.8432 42.0675 57.8432 41.5646C57.8432 41.0575 57.9412 40.6143 58.1373 40.2351C58.3333 39.8537 58.6113 39.5575 58.9714 39.3466C59.3336 39.1335 59.763 39.027 60.2594 39.027C60.7559 39.027 61.1841 39.1335 61.5442 39.3466C61.9064 39.5575 62.1855 39.8537 62.3816 40.2351C62.5776 40.6143 62.6756 41.0575 62.6756 41.5646C62.6756 42.0675 62.5776 42.5096 62.3816 42.891C62.1855 43.2702 61.9064 43.5664 61.5442 43.7795C61.1841 43.9904 60.7559 44.0959 60.2594 44.0959ZM60.2658 43.0412C60.4917 43.0412 60.6802 42.9773 60.8315 42.8494C60.9828 42.7195 61.0968 42.5426 61.1735 42.3189C61.2523 42.0952 61.2917 41.8406 61.2917 41.555C61.2917 41.2695 61.2523 41.0149 61.1735 40.7912C61.0968 40.5675 60.9828 40.3906 60.8315 40.2607C60.6802 40.1307 60.4917 40.0657 60.2658 40.0657C60.0378 40.0657 59.8461 40.1307 59.6905 40.2607C59.5371 40.3906 59.421 40.5675 59.3422 40.7912C59.2654 41.0149 59.2271 41.2695 59.2271 41.555C59.2271 41.8406 59.2654 42.0952 59.3422 42.3189C59.421 42.5426 59.5371 42.7195 59.6905 42.8494C59.8461 42.9773 60.0378 43.0412 60.2658 43.0412ZM64.9224 37.4545V44H63.5609V37.4545H64.9224ZM67.4129 44.0927C67.0997 44.0927 66.8206 44.0384 66.5756 43.9297C66.3305 43.8189 66.1366 43.6559 65.9939 43.4407C65.8532 43.2234 65.7829 42.9528 65.7829 42.6289C65.7829 42.3562 65.833 42.1271 65.9331 41.9418C66.0333 41.7564 66.1697 41.6072 66.3422 41.4943C66.5148 41.3814 66.7108 41.2962 66.9303 41.2386C67.1519 41.1811 67.3841 41.1406 67.627 41.1172C67.9126 41.0874 68.1427 41.0597 68.3174 41.0341C68.4921 41.0064 68.6189 40.9659 68.6977 40.9126C68.7765 40.8594 68.816 40.7805 68.816 40.6761V40.657C68.816 40.4545 68.752 40.2979 68.6242 40.1871C68.4985 40.0763 68.3195 40.021 68.0873 40.021C67.8422 40.021 67.6473 40.0753 67.5024 40.1839C67.3575 40.2905 67.2616 40.4247 67.2148 40.5866L65.9555 40.4844C66.0194 40.1861 66.1452 39.9283 66.3327 39.7109C66.5202 39.4915 66.762 39.3232 67.0581 39.206C67.3564 39.0866 67.7016 39.027 68.0937 39.027C68.3664 39.027 68.6274 39.0589 68.8767 39.1229C69.1281 39.1868 69.3508 39.2859 69.5447 39.4201C69.7407 39.5543 69.8952 39.7269 70.0081 39.9379C70.121 40.1467 70.1775 40.397 70.1775 40.6889V44H68.8863V43.3192H68.8479C68.7691 43.4727 68.6636 43.608 68.5315 43.7251C68.3994 43.8402 68.2407 43.9308 68.0553 43.9968C67.8699 44.0607 67.6558 44.0927 67.4129 44.0927ZM67.8028 43.1531C68.0031 43.1531 68.18 43.1136 68.3334 43.0348C68.4868 42.9538 68.6072 42.8452 68.6945 42.7088C68.7819 42.5724 68.8256 42.418 68.8256 42.2454V41.7244C68.7829 41.7521 68.7243 41.7777 68.6498 41.8011C68.5773 41.8224 68.4953 41.8427 68.4037 41.8619C68.3121 41.8789 68.2204 41.8949 68.1288 41.9098C68.0372 41.9226 67.9541 41.9343 67.8795 41.945C67.7197 41.9684 67.5802 42.0057 67.4608 42.0568C67.3415 42.108 67.2488 42.1772 67.1828 42.2646C67.1167 42.3498 67.0837 42.4563 67.0837 42.5842C67.0837 42.7695 67.1508 42.9112 67.2851 43.0092C67.4214 43.1051 67.594 43.1531 67.8028 43.1531Z" fill="black"/>
</svg>
