<svg width="12" height="12" viewBox="0 0 12 12" fill="none" xmlns="http://www.w3.org/2000/svg">
<g clip-path="url(#clip0_57_73)">
<path d="M2.64163 9.18011C2.87319 9.18072 3.10257 9.13543 3.31652 9.04686C3.53048 8.95829 3.72475 8.82821 3.88813 8.66411L5.68813 6.86411C5.75179 6.80317 5.83651 6.76916 5.92463 6.76916C6.01276 6.76916 6.09748 6.80317 6.16113 6.86411L7.96763 8.67061C8.131 8.83473 8.32527 8.96483 8.53922 9.0534C8.75318 9.14197 8.98257 9.18725 9.21413 9.18661H9.56913L7.28913 11.4666C6.94719 11.8083 6.48355 12.0003 6.00013 12.0003C5.51671 12.0003 5.05307 11.8083 4.71113 11.4666L2.42513 9.18011H2.64163ZM9.21413 2.81361C8.98257 2.81301 8.75319 2.85829 8.53924 2.94686C8.32529 3.03543 8.13101 3.16552 7.96763 3.32961L6.16113 5.13661C6.09834 5.1992 6.01329 5.23435 5.92463 5.23435C5.83597 5.23435 5.75093 5.1992 5.68813 5.13661L3.88813 3.33661C3.7248 3.17243 3.53054 3.04225 3.31658 2.95359C3.10263 2.86494 2.87323 2.81957 2.64163 2.82011H2.42463L4.71113 0.534112C5.05301 0.192267 5.51667 0.00022316 6.00013 0.00022316C6.4836 0.00022316 6.94726 0.192267 7.28913 0.534112L9.56863 2.81361H9.21413ZM0.534133 4.71111L1.89513 3.34961H2.64113C2.96799 3.35047 3.28132 3.48018 3.51313 3.71061L5.31313 5.51061C5.47528 5.67228 5.69491 5.76307 5.92388 5.76307C6.15286 5.76307 6.37249 5.67228 6.53463 5.51061L8.34163 3.70411C8.57333 3.47345 8.8867 3.34354 9.21363 3.34261H10.0971L11.4656 4.71111C11.8075 5.05299 11.9995 5.51665 11.9995 6.00011C11.9995 6.48357 11.8075 6.94724 11.4656 7.28911L10.0976 8.65711H9.21363C8.88677 8.65631 8.57341 8.52659 8.34163 8.29611L6.53513 6.48961C6.37051 6.33251 6.15169 6.24485 5.92413 6.24485C5.69657 6.24485 5.47776 6.33251 5.31313 6.48961L3.51313 8.28961C3.28132 8.52004 2.96799 8.64976 2.64113 8.65061H1.89563L0.534133 7.28911C0.192288 6.94724 0.000244141 6.48357 0.000244141 6.00011C0.000244141 5.51665 0.192288 5.05299 0.534133 4.71111" fill="black"/>
</g>
<defs>
<clipPath id="clip0_57_73">
<rect width="12" height="12" fill="white"/>
</clipPath>
</defs>
</svg>
