<svg width="25" height="25" viewBox="0 0 25 25" fill="none" xmlns="http://www.w3.org/2000/svg">
<g clip-path="url(#clip0_57_74)">
<path d="M5.50314 19.125C5.98555 19.1263 6.46343 19.0319 6.90916 18.8474C7.35489 18.6629 7.75964 18.3919 8.10001 18.05L11.85 14.3C11.9826 14.173 12.1591 14.1022 12.3427 14.1022C12.5263 14.1022 12.7028 14.173 12.8354 14.3L16.599 18.0635C16.9393 18.4054 17.344 18.6765 17.7898 18.861C18.2355 19.0455 18.7134 19.1399 19.1958 19.1385H19.9354L15.1854 23.8885C14.4731 24.6005 13.5071 25.0004 12.5 25.0004C11.4929 25.0004 10.527 24.6005 9.8146 23.8885L5.0521 19.125H5.50314ZM19.1958 5.86145C18.7134 5.86019 18.2356 5.95454 17.7898 6.13905C17.3441 6.32357 16.9393 6.59459 16.599 6.93645L12.8354 10.701C12.7046 10.8314 12.5274 10.9047 12.3427 10.9047C12.158 10.9047 11.9808 10.8314 11.85 10.701L8.10001 6.95103C7.75973 6.60898 7.35502 6.33777 6.90928 6.15307C6.46355 5.96838 5.98562 5.87386 5.50314 5.87499H5.05105L9.8146 1.11249C10.5268 0.400315 11.4928 0.00022316 12.5 0.00022316C13.5072 0.00022316 14.4732 0.400315 15.1854 1.11249L19.9344 5.86145H19.1958ZM1.11251 9.81457L3.94793 6.97812H5.5021C6.18304 6.97989 6.83582 7.25014 7.31876 7.7302L11.0688 11.4802C11.4066 11.817 11.8641 12.0062 12.3412 12.0062C12.8182 12.0062 13.2758 11.817 13.6136 11.4802L17.3781 7.71666C17.8608 7.23612 18.5137 6.96548 19.1948 6.96353H21.0354L23.8865 9.81457C24.5986 10.5268 24.9987 11.4928 24.9987 12.5C24.9987 13.5072 24.5986 14.4732 23.8865 15.1854L21.0365 18.0354H19.1948C18.5138 18.0337 17.861 17.7635 17.3781 17.2833L13.6146 13.5198C13.2716 13.1925 12.8158 13.0099 12.3417 13.0099C11.8676 13.0099 11.4117 13.1925 11.0688 13.5198L7.31876 17.2698C6.83582 17.7498 6.18304 18.0201 5.5021 18.0219H3.94897L1.11251 15.1854C0.400336 14.4732 0.000244141 13.5072 0.000244141 12.5C0.000244141 11.4928 0.400336 10.5268 1.11251 9.81457" fill="black"/>
</g>
<defs>
<clipPath id="clip0_57_74">
<rect width="25" height="25" fill="white"/>
</clipPath>
</defs>
</svg>
