<svg width="55" height="41" viewBox="0 0 55 41" fill="none" xmlns="http://www.w3.org/2000/svg">
<g clip-path="url(#clip0_57_64)">
<path d="M18.4993 1.5004V8.4997H25.4986V1.5004H18.4993ZM26.9979 11.9999V22H17V12.001H26.999L26.9979 11.9999ZM25.4986 13.5003H18.4993V20.4996H25.4986V13.5003V13.5003ZM23.5934 15.5606V18.5603H20.5937V15.5606H23.5934V15.5606ZM26.9979 0V9.999H17V0H26.999H26.9979ZM23.5934 3.5607H20.5937V6.5604H23.5934V3.5607ZM38.9923 18.6252V21.9989H33.9213V20.4985H37.4919V18.6252H38.9923ZM32.2273 20.4963V21.9967H28.9966V20.4963H32.2273ZM30.4948 11.9933V18.5922H28.9955V11.9933H30.4948ZM34.0918 15.5606V17.0588H35.5944V18.5581H32.5925V15.5606H34.0918V15.5606ZM39 15.235V16.9169H37.5007V15.2339H39V15.235ZM38.989 12.0373V13.5377H33.9246V12.0373H38.989ZM38.9956 0V9.999H28.9977V0H38.9967H38.9956ZM37.4963 1.5004H30.4981V8.4997H37.4963V1.5004ZM35.5911 3.5607V6.5604H32.5914V3.5607H35.5911Z" fill="black"/>
</g>
<path d="M0.568892 39V32.4545H1.95277V37.859H4.75888V39H0.568892ZM7.88699 39.0959C7.38201 39.0959 6.94735 38.9936 6.58301 38.7891C6.22079 38.5824 5.94167 38.2905 5.74565 37.9134C5.54963 37.5341 5.45162 37.0856 5.45162 36.5678C5.45162 36.0629 5.54963 35.6197 5.74565 35.2383C5.94167 34.8569 6.2176 34.5597 6.57342 34.3466C6.93137 34.1335 7.35112 34.027 7.83265 34.027C8.15652 34.027 8.45801 34.0792 8.73713 34.1836C9.01838 34.2859 9.26341 34.4403 9.47221 34.647C9.68315 34.8537 9.84721 35.1136 9.9644 35.4268C10.0816 35.7379 10.1402 36.1023 10.1402 36.5199V36.8938H5.99494V36.0501H8.85858C8.85858 35.854 8.81596 35.6804 8.73074 35.5291C8.64551 35.3778 8.52726 35.2596 8.37598 35.1744C8.22683 35.087 8.05318 35.0433 7.85503 35.0433C7.64835 35.0433 7.46511 35.0913 7.30531 35.1871C7.14764 35.2809 7.02406 35.4077 6.93457 35.5675C6.84508 35.7251 6.79927 35.9009 6.79714 36.0948V36.897C6.79714 37.1399 6.84189 37.3498 6.93137 37.5266C7.02299 37.7035 7.1519 37.8398 7.31809 37.9357C7.48429 38.0316 7.68137 38.0795 7.90936 38.0795C8.06064 38.0795 8.19913 38.0582 8.32484 38.0156C8.45055 37.973 8.55815 37.9091 8.64764 37.8239C8.73713 37.7386 8.80531 37.6342 8.85218 37.5107L10.1114 37.5938C10.0475 37.8963 9.91646 38.1605 9.71831 38.3864C9.52228 38.6101 9.26873 38.7848 8.95765 38.9105C8.6487 39.0341 8.29181 39.0959 7.88699 39.0959ZM11.0287 39V34.0909H12.3486V34.9474H12.3998C12.4893 34.6428 12.6395 34.4126 12.8504 34.2571C13.0613 34.0994 13.3042 34.0206 13.5791 34.0206C13.6473 34.0206 13.7208 34.0249 13.7996 34.0334C13.8785 34.0419 13.9477 34.0536 14.0074 34.0685V35.2766C13.9434 35.2575 13.855 35.2404 13.7421 35.2255C13.6292 35.2106 13.5258 35.2031 13.4321 35.2031C13.2318 35.2031 13.0528 35.2468 12.8952 35.3342C12.7396 35.4194 12.616 35.5387 12.5244 35.6921C12.4349 35.8455 12.3902 36.0224 12.3902 36.2227V39H11.0287ZM19.2904 36.7244H20.4665L21.0578 37.4851L21.6395 38.1626L22.7357 39.5369H21.4445L20.6903 38.6101L20.3035 38.0604L19.2904 36.7244ZM22.8348 35.7273C22.8348 36.4411 22.6995 37.0483 22.4289 37.549C22.1604 38.0497 21.7939 38.4322 21.3295 38.6964C20.8671 38.9585 20.3472 39.0895 19.7698 39.0895C19.1881 39.0895 18.6661 38.9574 18.2037 38.6932C17.7414 38.429 17.376 38.0465 17.1075 37.5458C16.839 37.0451 16.7048 36.4389 16.7048 35.7273C16.7048 35.0135 16.839 34.4062 17.1075 33.9055C17.376 33.4048 17.7414 33.0234 18.2037 32.7614C18.6661 32.4972 19.1881 32.3651 19.7698 32.3651C20.3472 32.3651 20.8671 32.4972 21.3295 32.7614C21.7939 33.0234 22.1604 33.4048 22.4289 33.9055C22.6995 34.4062 22.8348 35.0135 22.8348 35.7273ZM21.4317 35.7273C21.4317 35.2649 21.3625 34.875 21.224 34.5575C21.0876 34.2401 20.8948 33.9993 20.6455 33.8352C20.3962 33.6712 20.1043 33.5891 19.7698 33.5891C19.4353 33.5891 19.1434 33.6712 18.8941 33.8352C18.6448 33.9993 18.4509 34.2401 18.3124 34.5575C18.176 34.875 18.1079 35.2649 18.1079 35.7273C18.1079 36.1896 18.176 36.5795 18.3124 36.897C18.4509 37.2145 18.6448 37.4553 18.8941 37.6193C19.1434 37.7834 19.4353 37.8654 19.7698 37.8654C20.1043 37.8654 20.3962 37.7834 20.6455 37.6193C20.8948 37.4553 21.0876 37.2145 21.224 36.897C21.3625 36.5795 21.4317 36.1896 21.4317 35.7273ZM23.8599 39V32.4545H26.4423C26.9366 32.4545 27.3585 32.543 27.7079 32.7198C28.0595 32.8945 28.3269 33.1428 28.5101 33.4645C28.6955 33.7841 28.7882 34.1602 28.7882 34.5927C28.7882 35.0273 28.6944 35.4013 28.5069 35.7145C28.3194 36.0256 28.0478 36.2642 27.6919 36.4304C27.3382 36.5966 26.91 36.6797 26.4071 36.6797H24.6781V35.5675H26.1834C26.4476 35.5675 26.6671 35.5312 26.8418 35.4588C27.0165 35.3864 27.1465 35.2777 27.2317 35.1328C27.3191 34.9879 27.3627 34.8079 27.3627 34.5927C27.3627 34.3754 27.3191 34.1921 27.2317 34.043C27.1465 33.8938 27.0154 33.7809 26.8386 33.7042C26.6639 33.6254 26.4434 33.5859 26.177 33.5859H25.2438V39H23.8599ZM27.3947 36.0213L29.0215 39H27.4938L25.9022 36.0213H27.3947ZM37.6244 34.7461H36.2245C36.199 34.565 36.1468 34.4041 36.0679 34.2635C35.9891 34.1207 35.8879 33.9993 35.7643 33.8991C35.6407 33.799 35.498 33.7223 35.336 33.669C35.1762 33.6158 35.0026 33.5891 34.8151 33.5891C34.4763 33.5891 34.1812 33.6733 33.9298 33.8416C33.6784 34.0078 33.4834 34.2507 33.3449 34.5703C33.2064 34.8878 33.1372 35.2734 33.1372 35.7273C33.1372 36.1939 33.2064 36.5859 33.3449 36.9034C33.4855 37.2209 33.6816 37.4606 33.933 37.6225C34.1844 37.7844 34.4752 37.8654 34.8055 37.8654C34.9909 37.8654 35.1624 37.8409 35.32 37.7919C35.4798 37.7429 35.6215 37.6715 35.7451 37.5778C35.8687 37.4819 35.971 37.3658 36.0519 37.2294C36.135 37.093 36.1926 36.9375 36.2245 36.7628L37.6244 36.7692C37.5882 37.0696 37.4976 37.3594 37.3527 37.6385C37.21 37.9155 37.0171 38.1637 36.7742 38.3832C36.5335 38.6005 36.2458 38.7731 35.9113 38.9009C35.5789 39.0266 35.2029 39.0895 34.7831 39.0895C34.1993 39.0895 33.6773 38.9574 33.2171 38.6932C32.759 38.429 32.3968 38.0465 32.1304 37.5458C31.8662 37.0451 31.7341 36.4389 31.7341 35.7273C31.7341 35.0135 31.8683 34.4062 32.1368 33.9055C32.4053 33.4048 32.7696 33.0234 33.2298 32.7614C33.6901 32.4972 34.2078 32.3651 34.7831 32.3651C35.1624 32.3651 35.5139 32.4183 35.8378 32.5249C36.1638 32.6314 36.4525 32.7869 36.7039 32.9915C36.9553 33.1939 37.1599 33.4421 37.3176 33.7362C37.4774 34.0302 37.5796 34.3668 37.6244 34.7461ZM40.8092 39.0959C40.3128 39.0959 39.8834 38.9904 39.5212 38.7795C39.1611 38.5664 38.8831 38.2702 38.6871 37.891C38.491 37.5096 38.393 37.0675 38.393 36.5646C38.393 36.0575 38.491 35.6143 38.6871 35.2351C38.8831 34.8537 39.1611 34.5575 39.5212 34.3466C39.8834 34.1335 40.3128 34.027 40.8092 34.027C41.3057 34.027 41.7339 34.1335 42.094 34.3466C42.4562 34.5575 42.7354 34.8537 42.9314 35.2351C43.1274 35.6143 43.2254 36.0575 43.2254 36.5646C43.2254 37.0675 43.1274 37.5096 42.9314 37.891C42.7354 38.2702 42.4562 38.5664 42.094 38.7795C41.7339 38.9904 41.3057 39.0959 40.8092 39.0959ZM40.8156 38.0412C41.0415 38.0412 41.23 37.9773 41.3813 37.8494C41.5326 37.7195 41.6466 37.5426 41.7233 37.3189C41.8021 37.0952 41.8415 36.8406 41.8415 36.555C41.8415 36.2695 41.8021 36.0149 41.7233 35.7912C41.6466 35.5675 41.5326 35.3906 41.3813 35.2607C41.23 35.1307 41.0415 35.0657 40.8156 35.0657C40.5876 35.0657 40.3959 35.1307 40.2403 35.2607C40.0869 35.3906 39.9708 35.5675 39.892 35.7912C39.8153 36.0149 39.7769 36.2695 39.7769 36.555C39.7769 36.8406 39.8153 37.0952 39.892 37.3189C39.9708 37.5426 40.0869 37.7195 40.2403 37.8494C40.3959 37.9773 40.5876 38.0412 40.8156 38.0412ZM45.9197 39.0799C45.5468 39.0799 45.2091 38.984 44.9065 38.7923C44.6061 38.5984 44.3675 38.3139 44.1906 37.9389C44.0159 37.5618 43.9285 37.0994 43.9285 36.5518C43.9285 35.9893 44.0191 35.5217 44.2002 35.1488C44.3813 34.7738 44.6221 34.4936 44.9225 34.3082C45.2251 34.1207 45.5564 34.027 45.9165 34.027C46.1913 34.027 46.4204 34.0739 46.6036 34.1676C46.789 34.2592 46.9381 34.3743 47.051 34.5128C47.1661 34.6491 47.2535 34.7834 47.3131 34.9155H47.3547V32.4545H48.713V39H47.3707V38.2138H47.3131C47.2492 38.3501 47.1586 38.4854 47.0415 38.6197C46.9264 38.7518 46.7762 38.8615 46.5908 38.9489C46.4076 39.0362 46.1839 39.0799 45.9197 39.0799ZM46.3511 37.9964C46.5706 37.9964 46.7559 37.9368 46.9072 37.8175C47.0606 37.696 47.1778 37.5266 47.2588 37.3093C47.3419 37.092 47.3834 36.8374 47.3834 36.5455C47.3834 36.2536 47.343 36 47.262 35.7848C47.181 35.5696 47.0638 35.4034 46.9104 35.2862C46.757 35.169 46.5706 35.1104 46.3511 35.1104C46.1274 35.1104 45.9388 35.1712 45.7854 35.2926C45.632 35.4141 45.5159 35.5824 45.4371 35.7976C45.3582 36.0128 45.3188 36.2621 45.3188 36.5455C45.3188 36.831 45.3582 37.0835 45.4371 37.3029C45.518 37.5202 45.6341 37.6907 45.7854 37.8143C45.9388 37.9357 46.1274 37.9964 46.3511 37.9964ZM52.0696 39.0959C51.5646 39.0959 51.13 38.9936 50.7656 38.7891C50.4034 38.5824 50.1243 38.2905 49.9283 37.9134C49.7322 37.5341 49.6342 37.0856 49.6342 36.5678C49.6342 36.0629 49.7322 35.6197 49.9283 35.2383C50.1243 34.8569 50.4002 34.5597 50.756 34.3466C51.114 34.1335 51.5337 34.027 52.0153 34.027C52.3391 34.027 52.6406 34.0792 52.9197 34.1836C53.201 34.2859 53.446 34.4403 53.6548 34.647C53.8658 34.8537 54.0298 35.1136 54.147 35.4268C54.2642 35.7379 54.3228 36.1023 54.3228 36.5199V36.8938H50.1776V36.0501H53.0412C53.0412 35.854 52.9986 35.6804 52.9134 35.5291C52.8281 35.3778 52.7099 35.2596 52.5586 35.1744C52.4094 35.087 52.2358 35.0433 52.0376 35.0433C51.831 35.0433 51.6477 35.0913 51.4879 35.1871C51.3303 35.2809 51.2067 35.4077 51.1172 35.5675C51.0277 35.7251 50.9819 35.9009 50.9798 36.0948V36.897C50.9798 37.1399 51.0245 37.3498 51.114 37.5266C51.2056 37.7035 51.3345 37.8398 51.5007 37.9357C51.6669 38.0316 51.864 38.0795 52.092 38.0795C52.2433 38.0795 52.3817 38.0582 52.5075 38.0156C52.6332 37.973 52.7408 37.9091 52.8303 37.8239C52.9197 37.7386 52.9879 37.6342 53.0348 37.5107L54.294 37.5938C54.2301 37.8963 54.0991 38.1605 53.9009 38.3864C53.7049 38.6101 53.4513 38.7848 53.1403 38.9105C52.8313 39.0341 52.4744 39.0959 52.0696 39.0959Z" fill="black"/>
<defs>
<clipPath id="clip0_57_64">
<rect width="22" height="22" fill="white" transform="translate(17)"/>
</clipPath>
</defs>
</svg>
