<svg width="35" height="43" viewBox="0 0 35 43" fill="none" xmlns="http://www.w3.org/2000/svg">
<path d="M11.0955 18.1312L15.8066 22L20.5176 18.1312H25.4661C26.9881 18.1312 28.2259 17.1148 28.2259 15.8648V2.26641C28.2259 1.01648 26.9881 0 25.4661 0H6.14706C4.625 0 3.38721 1.01648 3.38721 2.26641V15.8648C3.38721 17.1148 4.625 18.1312 6.14706 18.1312H11.0955ZM6.14706 2.26641H25.4661V15.8648H19.3751L15.8066 18.7953L12.2381 15.8648H6.14706V2.26641Z" fill="black"/>
<path d="M15.6262 14V4H16.2668V14H15.6262ZM17.3254 7.30078C17.2942 6.98568 17.1601 6.74089 16.9231 6.56641C16.6861 6.39193 16.3645 6.30469 15.9583 6.30469C15.6822 6.30469 15.4491 6.34375 15.259 6.42187C15.0689 6.4974 14.9231 6.60286 14.8215 6.73828C14.7226 6.8737 14.6731 7.02734 14.6731 7.19922C14.6679 7.34245 14.6978 7.46745 14.7629 7.57422C14.8306 7.68099 14.9231 7.77344 15.0403 7.85156C15.1575 7.92708 15.2929 7.99349 15.4465 8.05078C15.6002 8.10547 15.7642 8.15234 15.9387 8.19141L16.6575 8.36328C17.0064 8.44141 17.3267 8.54557 17.6184 8.67578C17.9101 8.80599 18.1627 8.96615 18.3762 9.15625C18.5898 9.34635 18.7551 9.57031 18.8723 9.82812C18.9921 10.0859 19.0533 10.3815 19.0559 10.7148C19.0533 11.2044 18.9283 11.6289 18.6809 11.9883C18.4361 12.3451 18.082 12.6224 17.6184 12.8203C17.1575 13.0156 16.6015 13.1133 15.9504 13.1133C15.3046 13.1133 14.7421 13.0143 14.2629 12.8164C13.7864 12.6185 13.414 12.3255 13.1458 11.9375C12.8801 11.5469 12.7408 11.0638 12.7278 10.4883H14.3645C14.3827 10.7565 14.4596 10.9805 14.595 11.1602C14.733 11.3372 14.9166 11.4714 15.1458 11.5625C15.3775 11.651 15.6392 11.6953 15.9309 11.6953C16.2174 11.6953 16.4661 11.6536 16.677 11.5703C16.8905 11.487 17.0559 11.3711 17.1731 11.2227C17.2903 11.0742 17.3489 10.9036 17.3489 10.7109C17.3489 10.5312 17.2955 10.3802 17.1887 10.2578C17.0846 10.1354 16.9309 10.0312 16.7278 9.94531C16.5273 9.85937 16.2812 9.78125 15.9895 9.71094L15.1184 9.49219C14.4439 9.32812 13.9114 9.07161 13.5208 8.72266C13.1301 8.3737 12.9361 7.90365 12.9387 7.3125C12.9361 6.82812 13.065 6.40495 13.3254 6.04297C13.5885 5.68099 13.9491 5.39844 14.4075 5.19531C14.8658 4.99219 15.3866 4.89062 15.97 4.89062C16.5637 4.89062 17.0819 4.99219 17.5247 5.19531C17.97 5.39844 18.3163 5.68099 18.5637 6.04297C18.8111 6.40495 18.9387 6.82422 18.9465 7.30078H17.3254Z" fill="black"/>
<path d="M6.34411 36.7461H4.94425C4.91868 36.565 4.86648 36.4041 4.78764 36.2635C4.70881 36.1207 4.6076 35.9993 4.48402 35.8991C4.36044 35.799 4.21768 35.7223 4.05575 35.669C3.89595 35.6158 3.7223 35.5891 3.5348 35.5891C3.19602 35.5891 2.90092 35.6733 2.6495 35.8416C2.39808 36.0078 2.20313 36.2507 2.06463 36.5703C1.92614 36.8878 1.85689 37.2734 1.85689 37.7273C1.85689 38.1939 1.92614 38.5859 2.06463 38.9034C2.20526 39.2209 2.40128 39.4606 2.6527 39.6225C2.90412 39.7844 3.19496 39.8654 3.52521 39.8654C3.71058 39.8654 3.8821 39.8409 4.03977 39.7919C4.19957 39.7429 4.34126 39.6715 4.46484 39.5778C4.58842 39.4819 4.6907 39.3658 4.77166 39.2294C4.85476 39.093 4.91229 38.9375 4.94425 38.7628L6.34411 38.7692C6.30788 39.0696 6.21733 39.3594 6.07244 39.6385C5.92969 39.9155 5.73686 40.1637 5.49396 40.3832C5.2532 40.6005 4.96555 40.7731 4.63104 40.9009C4.29865 41.0266 3.92259 41.0895 3.50284 41.0895C2.91903 41.0895 2.39702 40.9574 1.93679 40.6932C1.47869 40.429 1.11648 40.0465 0.850142 39.5458C0.585938 39.0451 0.453835 38.4389 0.453835 37.7273C0.453835 37.0135 0.588068 36.4062 0.856534 35.9055C1.125 35.4048 1.48935 35.0234 1.94957 34.7614C2.4098 34.4972 2.92756 34.3651 3.50284 34.3651C3.8821 34.3651 4.23366 34.4183 4.55753 34.5249C4.88352 34.6314 5.17223 34.7869 5.42365 34.9915C5.67507 35.1939 5.87962 35.4421 6.03729 35.7362C6.19709 36.0302 6.29936 36.3668 6.34411 36.7461ZM9.52894 41.0959C9.03249 41.0959 8.60316 40.9904 8.24094 40.7795C7.88086 40.5664 7.60281 40.2702 7.40678 39.891C7.21076 39.5096 7.11275 39.0675 7.11275 38.5646C7.11275 38.0575 7.21076 37.6143 7.40678 37.2351C7.60281 36.8537 7.88086 36.5575 8.24094 36.3466C8.60316 36.1335 9.03249 36.027 9.52894 36.027C10.0254 36.027 10.4537 36.1335 10.8137 36.3466C11.176 36.5575 11.4551 36.8537 11.6511 37.2351C11.8471 37.6143 11.9451 38.0575 11.9451 38.5646C11.9451 39.0675 11.8471 39.5096 11.6511 39.891C11.4551 40.2702 11.176 40.5664 10.8137 40.7795C10.4537 40.9904 10.0254 41.0959 9.52894 41.0959ZM9.53533 40.0412C9.76119 40.0412 9.94975 39.9773 10.101 39.8494C10.2523 39.7195 10.3663 39.5426 10.443 39.3189C10.5218 39.0952 10.5613 38.8406 10.5613 38.555C10.5613 38.2695 10.5218 38.0149 10.443 37.7912C10.3663 37.5675 10.2523 37.3906 10.101 37.2607C9.94975 37.1307 9.76119 37.0657 9.53533 37.0657C9.30735 37.0657 9.11559 37.1307 8.96005 37.2607C8.80664 37.3906 8.69052 37.5675 8.61168 37.7912C8.53498 38.0149 8.49663 38.2695 8.49663 38.555C8.49663 38.8406 8.53498 39.0952 8.61168 39.3189C8.69052 39.5426 8.80664 39.7195 8.96005 39.8494C9.11559 39.9773 9.30735 40.0412 9.53533 40.0412ZM12.856 41V34.4545H14.2175V36.9155H14.2591C14.3187 36.7834 14.405 36.6491 14.5179 36.5128C14.633 36.3743 14.7821 36.2592 14.9654 36.1676C15.1507 36.0739 15.3809 36.027 15.6557 36.027C16.0137 36.027 16.3439 36.1207 16.6465 36.3082C16.949 36.4936 17.1909 36.7738 17.372 37.1488C17.5531 37.5217 17.6436 37.9893 17.6436 38.5518C17.6436 39.0994 17.5552 39.5618 17.3784 39.9389C17.2037 40.3139 16.965 40.5984 16.6625 40.7923C16.362 40.984 16.0254 41.0799 15.6525 41.0799C15.3883 41.0799 15.1635 41.0362 14.9782 40.9489C14.7949 40.8615 14.6447 40.7518 14.5275 40.6197C14.4103 40.4854 14.3208 40.3501 14.2591 40.2138H14.1983V41H12.856ZM14.1887 38.5455C14.1887 38.8374 14.2292 39.092 14.3102 39.3093C14.3912 39.5266 14.5083 39.696 14.6618 39.8175C14.8152 39.9368 15.0016 39.9964 15.2211 39.9964C15.4426 39.9964 15.6301 39.9357 15.7836 39.8143C15.937 39.6907 16.0531 39.5202 16.1319 39.3029C16.2129 39.0835 16.2534 38.831 16.2534 38.5455C16.2534 38.2621 16.214 38.0128 16.1351 37.7976C16.0563 37.5824 15.9402 37.4141 15.7868 37.2926C15.6333 37.1712 15.4448 37.1104 15.2211 37.1104C14.9995 37.1104 14.812 37.169 14.6586 37.2862C14.5073 37.4034 14.3912 37.5696 14.3102 37.7848C14.2292 38 14.1887 38.2536 14.1887 38.5455ZM18.5521 41V36.0909H19.8721V36.9474H19.9232C20.0127 36.6428 20.1629 36.4126 20.3738 36.2571C20.5848 36.0994 20.8277 36.0206 21.1025 36.0206C21.1707 36.0206 21.2442 36.0249 21.3231 36.0334C21.4019 36.0419 21.4711 36.0536 21.5308 36.0685V37.2766C21.4669 37.2575 21.3785 37.2404 21.2655 37.2255C21.1526 37.2106 21.0493 37.2031 20.9555 37.2031C20.7552 37.2031 20.5763 37.2468 20.4186 37.3342C20.2631 37.4194 20.1395 37.5387 20.0479 37.6921C19.9584 37.8455 19.9136 38.0224 19.9136 38.2227V41H18.5521ZM23.494 41.0927C23.1808 41.0927 22.9016 41.0384 22.6566 40.9297C22.4116 40.8189 22.2177 40.6559 22.0749 40.4407C21.9343 40.2234 21.864 39.9528 21.864 39.6289C21.864 39.3562 21.9141 39.1271 22.0142 38.9418C22.1143 38.7564 22.2507 38.6072 22.4233 38.4943C22.5959 38.3814 22.7919 38.2962 23.0114 38.2386C23.233 38.1811 23.4652 38.1406 23.7081 38.1172C23.9936 38.0874 24.2237 38.0597 24.3984 38.0341C24.5732 38.0064 24.6999 37.9659 24.7788 37.9126C24.8576 37.8594 24.897 37.7805 24.897 37.6761V37.657C24.897 37.4545 24.8331 37.2979 24.7053 37.1871C24.5795 37.0763 24.4006 37.021 24.1683 37.021C23.9233 37.021 23.7283 37.0753 23.5835 37.1839C23.4386 37.2905 23.3427 37.4247 23.2958 37.5866L22.0366 37.4844C22.1005 37.1861 22.2262 36.9283 22.4137 36.7109C22.6012 36.4915 22.843 36.3232 23.1392 36.206C23.4375 36.0866 23.7827 36.027 24.1747 36.027C24.4474 36.027 24.7085 36.0589 24.9577 36.1229C25.2092 36.1868 25.4318 36.2859 25.6257 36.4201C25.8217 36.5543 25.9762 36.7269 26.0891 36.9379C26.2021 37.1467 26.2585 37.397 26.2585 37.6889V41H24.9673V40.3192H24.929C24.8501 40.4727 24.7447 40.608 24.6126 40.7251C24.4805 40.8402 24.3217 40.9308 24.1364 40.9968C23.951 41.0607 23.7369 41.0927 23.494 41.0927ZM23.8839 40.1531C24.0842 40.1531 24.261 40.1136 24.4144 40.0348C24.5678 39.9538 24.6882 39.8452 24.7756 39.7088C24.8629 39.5724 24.9066 39.418 24.9066 39.2454V38.7244C24.864 38.7521 24.8054 38.7777 24.7308 38.8011C24.6584 38.8224 24.5763 38.8427 24.4847 38.8619C24.3931 38.8789 24.3015 38.8949 24.2099 38.9098C24.1183 38.9226 24.0352 38.9343 23.9606 38.945C23.8008 38.9684 23.6612 39.0057 23.5419 39.0568C23.4226 39.108 23.3299 39.1772 23.2638 39.2646C23.1978 39.3498 23.1648 39.4563 23.1648 39.5842C23.1648 39.7695 23.2319 39.9112 23.3661 40.0092C23.5025 40.1051 23.6751 40.1531 23.8839 40.1531ZM27.3148 41V36.0909H28.6348V36.9474H28.6859C28.7754 36.6428 28.9256 36.4126 29.1365 36.2571C29.3475 36.0994 29.5904 36.0206 29.8652 36.0206C29.9334 36.0206 30.0069 36.0249 30.0858 36.0334C30.1646 36.0419 30.2338 36.0536 30.2935 36.0685V37.2766C30.2296 37.2575 30.1412 37.2404 30.0282 37.2255C29.9153 37.2106 29.812 37.2031 29.7182 37.2031C29.5179 37.2031 29.339 37.2468 29.1813 37.3342C29.0257 37.4194 28.9022 37.5387 28.8105 37.6921C28.7211 37.8455 28.6763 38.0224 28.6763 38.2227V41H27.3148Z" fill="black"/>
</svg>
