<svg width="44" height="44" viewBox="0 0 44 44" fill="none" xmlns="http://www.w3.org/2000/svg">
<g clip-path="url(#clip0_57_66)">
<path d="M26 8C26 5.87827 26.8429 3.84344 28.3431 2.34315C29.8434 0.842854 31.8783 0 34 0C36.1217 0 38.1566 0.842854 39.6569 2.34315C41.1571 3.84344 42 5.87827 42 8C42 10.1217 41.1571 12.1566 39.6569 13.6569C38.1566 15.1571 36.1217 16 34 16C31.8783 16 29.8434 15.1571 28.3431 13.6569C26.8429 12.1566 26 10.1217 26 8V8ZM33.5 11.5C33.5 11.6326 33.5527 11.7598 33.6464 11.8536C33.7402 11.9473 33.8674 12 34 12C34.1326 12 34.2598 11.9473 34.3536 11.8536C34.4473 11.7598 34.5 11.6326 34.5 11.5V5.707L36.646 7.854C36.7399 7.94789 36.8672 8.00063 37 8.00063C37.1328 8.00063 37.2601 7.94789 37.354 7.854C37.4479 7.76011 37.5006 7.63278 37.5006 7.5C37.5006 7.36722 37.4479 7.23989 37.354 7.146L34.354 4.146C34.3076 4.09944 34.2524 4.06249 34.1916 4.03729C34.1309 4.01208 34.0658 3.99911 34 3.99911C33.9342 3.99911 33.8691 4.01208 33.8084 4.03729C33.7476 4.06249 33.6924 4.09944 33.646 4.146L30.646 7.146C30.5521 7.23989 30.4994 7.36722 30.4994 7.5C30.4994 7.63278 30.5521 7.76011 30.646 7.854C30.7399 7.94789 30.8672 8.00063 31 8.00063C31.1328 8.00063 31.2601 7.94789 31.354 7.854L33.5 5.707V11.5Z" fill="black"/>
</g>
<path d="M9.25 10.875C9.25 10.2783 9.48705 9.70597 9.90901 9.28401C10.331 8.86205 10.9033 8.625 11.5 8.625H29.5C30.0967 8.625 30.669 8.86205 31.091 9.28401C31.5129 9.70597 31.75 10.2783 31.75 10.875V22.125C31.75 22.7217 31.5129 23.294 31.091 23.716C30.669 24.1379 30.0967 24.375 29.5 24.375H11.5C10.9033 24.375 10.331 24.1379 9.90901 23.716C9.48705 23.294 9.25 22.7217 9.25 22.125V10.875Z" stroke="black" stroke-width="2" stroke-linecap="round" stroke-linejoin="round"/>
<path d="M20.5 19.875C22.364 19.875 23.875 18.364 23.875 16.5C23.875 14.636 22.364 13.125 20.5 13.125C18.636 13.125 17.125 14.636 17.125 16.5C17.125 18.364 18.636 19.875 20.5 19.875Z" stroke="black" stroke-width="2" stroke-linecap="round" stroke-linejoin="round"/>
<path d="M9.25 13.125C10.4435 13.125 11.5881 12.6509 12.432 11.807C13.2759 10.9631 13.75 9.81847 13.75 8.625M27.25 24.375C27.25 23.1815 27.7241 22.0369 28.568 21.193C29.4119 20.3491 30.5565 19.875 31.75 19.875" stroke="black" stroke-width="2" stroke-linecap="round" stroke-linejoin="round"/>
<path d="M0.319602 36.5955V35.4545H5.69531V36.5955H3.69141V42H2.32351V36.5955H0.319602ZM6.04528 42V37.0909H7.36523V37.9474H7.41637C7.50586 37.6428 7.65607 37.4126 7.86701 37.2571C8.07795 37.0994 8.32085 37.0206 8.5957 37.0206C8.66389 37.0206 8.73739 37.0249 8.81623 37.0334C8.89506 37.0419 8.96431 37.0536 9.02397 37.0685V38.2766C8.96005 38.2575 8.87163 38.2404 8.7587 38.2255C8.64577 38.2106 8.54244 38.2031 8.44869 38.2031C8.2484 38.2031 8.06942 38.2468 7.91175 38.3342C7.75621 38.4194 7.63263 38.5387 7.54102 38.6921C7.45153 38.8455 7.40678 39.0224 7.40678 39.2227V42H6.04528ZM10.9871 42.0927C10.6739 42.0927 10.3948 42.0384 10.1498 41.9297C9.90474 41.8189 9.71085 41.6559 9.56809 41.4407C9.42747 41.2234 9.35716 40.9528 9.35716 40.6289C9.35716 40.3562 9.40723 40.1271 9.50737 39.9418C9.60751 39.7564 9.74387 39.6072 9.91646 39.4943C10.089 39.3814 10.2851 39.2962 10.5045 39.2386C10.7261 39.1811 10.9584 39.1406 11.2013 39.1172C11.4868 39.0874 11.7169 39.0597 11.8916 39.0341C12.0663 39.0064 12.1931 38.9659 12.2719 38.9126C12.3508 38.8594 12.3902 38.7805 12.3902 38.6761V38.657C12.3902 38.4545 12.3263 38.2979 12.1984 38.1871C12.0727 38.0763 11.8937 38.021 11.6615 38.021C11.4165 38.021 11.2215 38.0753 11.0766 38.1839C10.9317 38.2905 10.8358 38.4247 10.789 38.5866L9.52974 38.4844C9.59366 38.1861 9.71937 37.9283 9.90687 37.7109C10.0944 37.4915 10.3362 37.3232 10.6324 37.206C10.9307 37.0866 11.2758 37.027 11.6679 37.027C11.9406 37.027 12.2016 37.0589 12.4509 37.1229C12.7023 37.1868 12.925 37.2859 13.1189 37.4201C13.3149 37.5543 13.4694 37.7269 13.5823 37.9379C13.6952 38.1467 13.7517 38.397 13.7517 38.6889V42H12.4605V41.3192H12.4221C12.3433 41.4727 12.2378 41.608 12.1057 41.7251C11.9736 41.8402 11.8149 41.9308 11.6295 41.9968C11.4442 42.0607 11.23 42.0927 10.9871 42.0927ZM11.377 41.1531C11.5773 41.1531 11.7542 41.1136 11.9076 41.0348C12.061 40.9538 12.1814 40.8452 12.2687 40.7088C12.3561 40.5724 12.3998 40.418 12.3998 40.2454V39.7244C12.3572 39.7521 12.2986 39.7777 12.224 39.8011C12.1515 39.8224 12.0695 39.8427 11.9779 39.8619C11.8863 39.8789 11.7947 39.8949 11.703 39.9098C11.6114 39.9226 11.5283 39.9343 11.4537 39.945C11.2939 39.9684 11.1544 40.0057 11.0351 40.0568C10.9157 40.108 10.8231 40.1772 10.757 40.2646C10.691 40.3498 10.6579 40.4563 10.6579 40.5842C10.6579 40.7695 10.7251 40.9112 10.8593 41.0092C10.9956 41.1051 11.1682 41.1531 11.377 41.1531ZM16.1695 39.1619V42H14.808V37.0909H16.1056V37.957H16.1631C16.2718 37.6715 16.4539 37.4457 16.7096 37.2795C16.9653 37.1112 17.2753 37.027 17.6396 37.027C17.9806 37.027 18.2778 37.1016 18.5313 37.2507C18.7849 37.3999 18.982 37.6129 19.1226 37.8899C19.2632 38.1648 19.3335 38.4929 19.3335 38.8743V42H17.972V39.1172C17.9742 38.8168 17.8975 38.5824 17.7419 38.4141C17.5864 38.2436 17.3722 38.1584 17.0995 38.1584C16.9163 38.1584 16.7544 38.1978 16.6137 38.2766C16.4752 38.3555 16.3666 38.4705 16.2877 38.6218C16.211 38.771 16.1716 38.951 16.1695 39.1619ZM24.4911 38.4908L23.2447 38.5675C23.2234 38.4609 23.1776 38.3651 23.1072 38.2798C23.0369 38.1925 22.9442 38.1232 22.8292 38.0721C22.7163 38.0188 22.581 37.9922 22.4233 37.9922C22.2124 37.9922 22.0344 38.0369 21.8896 38.1264C21.7447 38.2138 21.6722 38.331 21.6722 38.478C21.6722 38.5952 21.7191 38.6942 21.8129 38.7752C21.9066 38.8562 22.0675 38.9212 22.2955 38.9702L23.1839 39.1491C23.6612 39.2472 24.017 39.4048 24.2514 39.6222C24.4858 39.8395 24.603 40.125 24.603 40.4787C24.603 40.8004 24.5082 41.0827 24.3185 41.3256C24.131 41.5685 23.8732 41.7582 23.5451 41.8945C23.2191 42.0288 22.843 42.0959 22.4169 42.0959C21.767 42.0959 21.2493 41.9606 20.8636 41.69C20.4801 41.4173 20.2553 41.0465 20.1893 40.5778L21.5284 40.5075C21.5689 40.7056 21.6669 40.8569 21.8224 40.9613C21.978 41.0636 22.1772 41.1147 22.4201 41.1147C22.6587 41.1147 22.8505 41.0689 22.9954 40.9773C23.1424 40.8835 23.217 40.7631 23.2191 40.6161C23.217 40.4925 23.1648 40.3913 23.0625 40.3125C22.9602 40.2315 22.8026 40.1697 22.5895 40.1271L21.7393 39.9577C21.2599 39.8619 20.9031 39.6957 20.6687 39.4592C20.4364 39.2227 20.3203 38.9212 20.3203 38.5547C20.3203 38.2393 20.4055 37.9677 20.576 37.7397C20.7486 37.5117 20.9904 37.3359 21.3015 37.2124C21.6147 37.0888 21.9812 37.027 22.4009 37.027C23.021 37.027 23.5089 37.158 23.8647 37.4201C24.2227 37.6822 24.4315 38.0391 24.4911 38.4908ZM28.1002 37.0909V38.1136H25.0704V37.0909H28.1002ZM25.7639 42V36.7362C25.7639 36.3803 25.8332 36.0852 25.9717 35.8509C26.1123 35.6165 26.3041 35.4407 26.547 35.3235C26.7899 35.2063 27.0658 35.1477 27.3747 35.1477C27.5835 35.1477 27.7742 35.1637 27.9468 35.1957C28.1215 35.2276 28.2515 35.2564 28.3367 35.282L28.0938 36.3047C28.0406 36.2876 27.9745 36.2717 27.8957 36.2567C27.819 36.2418 27.7401 36.2344 27.6592 36.2344C27.4589 36.2344 27.3193 36.2812 27.2405 36.375C27.1617 36.4666 27.1222 36.5955 27.1222 36.7617V42H25.7639ZM30.9934 42.0959C30.4885 42.0959 30.0538 41.9936 29.6895 41.7891C29.3272 41.5824 29.0481 41.2905 28.8521 40.9134C28.6561 40.5341 28.5581 40.0856 28.5581 39.5678C28.5581 39.0629 28.6561 38.6197 28.8521 38.2383C29.0481 37.8569 29.324 37.5597 29.6799 37.3466C30.0378 37.1335 30.4576 37.027 30.9391 37.027C31.263 37.027 31.5645 37.0792 31.8436 37.1836C32.1248 37.2859 32.3699 37.4403 32.5787 37.647C32.7896 37.8537 32.9537 38.1136 33.0708 38.4268C33.188 38.7379 33.2466 39.1023 33.2466 39.5199V39.8938H29.1014V39.0501H31.965C31.965 38.854 31.9224 38.6804 31.8372 38.5291C31.752 38.3778 31.6337 38.2596 31.4824 38.1744C31.3333 38.087 31.1596 38.0433 30.9615 38.0433C30.7548 38.0433 30.5716 38.0913 30.4118 38.1871C30.2541 38.2809 30.1305 38.4077 30.041 38.5675C29.9515 38.7251 29.9057 38.9009 29.9036 39.0948V39.897C29.9036 40.1399 29.9483 40.3498 30.0378 40.5266C30.1294 40.7035 30.2583 40.8398 30.4245 40.9357C30.5907 41.0316 30.7878 41.0795 31.0158 41.0795C31.1671 41.0795 31.3056 41.0582 31.4313 41.0156C31.557 40.973 31.6646 40.9091 31.7541 40.8239C31.8436 40.7386 31.9118 40.6342 31.9586 40.5107L33.2179 40.5938C33.1539 40.8963 33.0229 41.1605 32.8248 41.3864C32.6287 41.6101 32.3752 41.7848 32.0641 41.9105C31.7551 42.0341 31.3983 42.0959 30.9934 42.0959ZM34.1351 42V37.0909H35.4551V37.9474H35.5062C35.5957 37.6428 35.7459 37.4126 35.9569 37.2571C36.1678 37.0994 36.4107 37.0206 36.6855 37.0206C36.7537 37.0206 36.8272 37.0249 36.9061 37.0334C36.9849 37.0419 37.0542 37.0536 37.1138 37.0685V38.2766C37.0499 38.2575 36.9615 38.2404 36.8485 38.2255C36.7356 38.2106 36.6323 38.2031 36.5385 38.2031C36.3382 38.2031 36.1593 38.2468 36.0016 38.3342C35.8461 38.4194 35.7225 38.5387 35.6309 38.6921C35.5414 38.8455 35.4966 39.0224 35.4966 39.2227V42H34.1351ZM37.8177 42V37.0909H39.1792V42H37.8177ZM38.5017 36.4581C38.2993 36.4581 38.1256 36.391 37.9807 36.2567C37.838 36.1204 37.7666 35.9574 37.7666 35.7678C37.7666 35.5803 37.838 35.4194 37.9807 35.2852C38.1256 35.1488 38.2993 35.0806 38.5017 35.0806C38.7041 35.0806 38.8767 35.1488 39.0194 35.2852C39.1643 35.4194 39.2368 35.5803 39.2368 35.7678C39.2368 35.9574 39.1643 36.1204 39.0194 36.2567C38.8767 36.391 38.7041 36.4581 38.5017 36.4581ZM40.2699 42V37.0909H41.5898V37.9474H41.641C41.7305 37.6428 41.8807 37.4126 42.0916 37.2571C42.3026 37.0994 42.5455 37.0206 42.8203 37.0206C42.8885 37.0206 42.962 37.0249 43.0408 37.0334C43.1197 37.0419 43.1889 37.0536 43.2486 37.0685V38.2766C43.1847 38.2575 43.0962 38.2404 42.9833 38.2255C42.8704 38.2106 42.767 38.2031 42.6733 38.2031C42.473 38.2031 42.294 38.2468 42.1364 38.3342C41.9808 38.4194 41.8572 38.5387 41.7656 38.6921C41.6761 38.8455 41.6314 39.0224 41.6314 39.2227V42H40.2699Z" fill="black"/>
<defs>
<clipPath id="clip0_57_66">
<rect width="16" height="16" fill="white" transform="translate(42 16) rotate(-180)"/>
</clipPath>
</defs>
</svg>
