<svg width="497" height="207" viewBox="0 0 497 207" fill="none" xmlns="http://www.w3.org/2000/svg">
<path d="M263.297 155.047C265.034 155.273 266.884 155.84 268.848 156.746C270.811 157.652 272.624 158.936 274.285 160.598C276.022 162.259 277.457 164.298 278.59 166.715C279.723 169.056 280.289 171.775 280.289 174.871C280.289 178.647 279.723 181.895 278.59 184.613C277.457 187.332 276.022 189.598 274.285 191.41C272.624 193.147 270.773 194.544 268.734 195.602C266.771 196.583 264.845 197.339 262.957 197.867C261.145 198.396 259.521 198.736 258.086 198.887C256.651 198.962 255.707 199 255.254 199H242.113V189.031H254.461C258.464 189.031 261.598 187.747 263.863 185.18C266.129 182.612 267.262 179.176 267.262 174.871C267.262 170.793 266.091 167.357 263.75 164.562C261.409 161.768 257.973 160.371 253.441 160.371H242.113V151.195H247.551C249.212 151.195 250.911 151.158 252.648 151.082C254.385 151.007 256.009 150.591 257.52 149.836C259.03 149.081 260.238 147.797 261.145 145.984C262.126 144.172 262.617 141.566 262.617 138.168C262.617 136.809 262.428 135.411 262.051 133.977C261.673 132.466 260.918 131.107 259.785 129.898C258.652 128.69 257.029 127.708 254.914 126.953C252.799 126.198 250.005 125.82 246.531 125.82H242.113V115.512H247.891C251.44 115.512 254.876 115.927 258.199 116.758C261.522 117.589 264.467 118.91 267.035 120.723C269.603 122.535 271.642 124.914 273.152 127.859C274.663 130.729 275.418 134.165 275.418 138.168C275.418 140.509 275.04 142.661 274.285 144.625C273.53 146.513 272.586 148.174 271.453 149.609C270.32 151.044 268.999 152.253 267.488 153.234C266.053 154.141 264.656 154.745 263.297 155.047ZM223.875 115.512H237.469V199H223.875V115.512ZM309.855 179.742C309.855 183.141 310.535 185.671 311.895 187.332C313.329 188.993 315.368 189.975 318.012 190.277V199.453C317.71 199.529 317.219 199.566 316.539 199.566C313.971 199.566 311.479 199.227 309.062 198.547C306.721 197.867 304.645 196.772 302.832 195.262C301.02 193.751 299.585 191.75 298.527 189.258C297.546 186.766 297.055 183.707 297.055 180.082C297.055 176.608 297.772 173.625 299.207 171.133C300.717 168.565 302.605 166.488 304.871 164.902C307.212 163.241 309.855 162.033 312.801 161.277C315.746 160.447 318.729 160.031 321.75 160.031H326.734V168.074H324.242C322.732 168.074 321.146 168.225 319.484 168.527C317.823 168.829 316.275 169.396 314.84 170.227C313.405 171.057 312.197 172.266 311.215 173.852C310.309 175.362 309.855 177.326 309.855 179.742ZM345.086 180.082C345.086 180.686 345.124 181.592 345.199 182.801C345.275 183.934 345.426 185.104 345.652 186.312C345.879 187.521 346.219 188.616 346.672 189.598C347.201 190.579 347.88 191.221 348.711 191.523L345.086 199.113C344.104 199.113 343.047 198.887 341.914 198.434C340.857 197.98 339.799 197.339 338.742 196.508C337.76 195.677 336.892 194.771 336.137 193.789C335.457 192.732 334.928 191.599 334.551 190.391C333.796 192.279 332.285 193.978 330.02 195.488C327.829 196.923 325.375 197.98 322.656 198.66V190.051C324.469 189.673 326.092 188.956 327.527 187.898C329.038 186.766 330.322 185.444 331.379 183.934V160.031C331.379 156.331 331.19 153.385 330.812 151.195C330.435 149.005 329.793 147.419 328.887 146.438C327.98 145.38 326.848 144.738 325.488 144.512C324.204 144.21 322.656 144.059 320.844 144.059C319.182 144.059 317.596 144.285 316.086 144.738C314.651 145.116 313.292 145.607 312.008 146.211C310.799 146.74 309.704 147.344 308.723 148.023C307.816 148.703 307.137 149.232 306.684 149.609L301.586 141.793C302.341 140.962 303.474 140.132 304.984 139.301C306.495 138.395 308.232 137.602 310.195 136.922C312.159 136.242 314.273 135.714 316.539 135.336C318.88 134.883 321.297 134.656 323.789 134.656C326.055 134.656 328.245 134.883 330.359 135.336C332.549 135.789 334.513 136.544 336.25 137.602C338.062 138.659 339.611 140.094 340.895 141.906C342.254 143.643 343.198 145.833 343.727 148.477C344.255 151.12 344.595 153.801 344.746 156.52C344.973 159.163 345.086 161.806 345.086 164.449V179.176V180.082ZM378.957 135.109L380.43 141.566V199H366.723V135.109H378.957ZM414.301 142.133C415.585 143.417 416.566 144.927 417.246 146.664C418.001 148.326 418.53 150.1 418.832 151.988C419.21 153.801 419.436 155.651 419.512 157.539C419.587 159.427 419.625 161.277 419.625 163.09V196.734V199H405.805V164.223C405.805 161.655 405.691 159.201 405.465 156.859C405.238 154.518 404.71 152.441 403.879 150.629C403.048 148.816 401.915 147.419 400.48 146.438C399.046 145.38 397.044 144.852 394.477 144.852C393.419 144.852 391.984 145.04 390.172 145.418C388.435 145.72 386.736 146.249 385.074 147.004V138.281C387.113 137.224 389.303 136.318 391.645 135.562C394.061 134.807 396.402 134.43 398.668 134.43C402.066 134.43 404.936 135.147 407.277 136.582C409.618 137.941 411.96 139.792 414.301 142.133ZM465.844 166.941L491.219 199H475.586L457.008 174.531V158.785L472.867 135.109H488.273L465.844 166.941ZM438.543 199V110.98H452.363V199H438.543Z" fill="#F0A500"/>
<path d="M70.2539 108H56.416V76.0664C56.416 74.2568 56.0967 72.6424 55.458 71.2231C54.8548 69.7684 54.021 68.5265 52.9565 67.4976C51.8921 66.4686 50.6325 65.688 49.1777 65.1558C47.7585 64.5881 46.215 64.3042 44.5474 64.3042H20.3311V108H6.49316V57.332C6.49316 56.374 6.67057 55.487 7.02539 54.6709C7.38021 53.8193 7.87695 53.092 8.51562 52.4888C9.1543 51.8501 9.89941 51.3534 10.751 50.9985C11.6025 50.6437 12.5073 50.4663 13.4653 50.4663H44.6538C46.3924 50.4663 48.2197 50.6615 50.1357 51.0518C52.0872 51.4421 54.0033 52.0807 55.8838 52.9678C57.7998 53.8193 59.6094 54.9193 61.3125 56.2676C63.0511 57.5804 64.5768 59.1948 65.8896 61.1108C67.238 62.9914 68.3024 65.1735 69.083 67.6572C69.8636 70.141 70.2539 72.944 70.2539 76.0664V108ZM144.287 69.52C144.287 71.436 143.95 73.5117 143.275 75.7471C142.601 77.9469 141.501 80.0049 139.976 81.9209C138.485 83.8014 136.516 85.3804 134.068 86.6577C131.655 87.9351 128.71 88.5737 125.233 88.5737H100.271V75.4277H125.233C127.113 75.4277 128.568 74.86 129.597 73.7246C130.626 72.5537 131.141 71.1167 131.141 69.4136C131.141 67.604 130.555 66.1847 129.384 65.1558C128.249 64.1268 126.865 63.6123 125.233 63.6123H100.271C98.391 63.6123 96.9362 64.1978 95.9072 65.3687C94.8783 66.5041 94.3638 67.9233 94.3638 69.6265V88.9463C94.3638 90.7913 94.9315 92.2284 96.0669 93.2573C97.2378 94.2863 98.6748 94.8008 100.378 94.8008H125.233V108H100.271C98.3555 108 96.2798 107.663 94.0444 106.989C91.8446 106.315 89.7866 105.232 87.8706 103.742C85.9901 102.216 84.4111 100.247 83.1338 97.8345C81.8564 95.3862 81.2178 92.4235 81.2178 88.9463V69.52C81.2178 67.604 81.5549 65.5461 82.229 63.3462C82.9032 61.1108 83.9854 59.0529 85.4756 57.1724C87.0013 55.2563 88.9705 53.6597 91.3833 52.3823C93.8315 51.105 96.7943 50.4663 100.271 50.4663H125.233C127.149 50.4663 129.207 50.8034 131.407 51.4775C133.642 52.1517 135.7 53.2516 137.581 54.7773C139.497 56.2676 141.093 58.2368 142.371 60.6851C143.648 63.0978 144.287 66.0428 144.287 69.52ZM212.571 88.9463C212.571 90.8623 212.234 92.938 211.56 95.1733C210.886 97.3732 209.786 99.4312 208.26 101.347C206.77 103.228 204.801 104.807 202.353 106.084C199.94 107.361 196.995 108 193.518 108H168.556C166.64 108 164.564 107.663 162.329 106.989C160.129 106.315 158.071 105.232 156.155 103.742C154.275 102.216 152.696 100.247 151.418 97.8345C150.141 95.3862 149.502 92.4235 149.502 88.9463C149.502 87.0303 149.84 84.9546 150.514 82.7192C151.188 80.4839 152.27 78.4259 153.76 76.5454C155.286 74.6294 157.255 73.0327 159.668 71.7554C162.116 70.478 165.079 69.8394 168.556 69.8394H193.518V83.0386H168.556C166.676 83.0386 165.221 83.624 164.192 84.7949C163.163 85.9303 162.648 87.3496 162.648 89.0527C162.648 90.8623 163.234 92.2816 164.405 93.3105C165.611 94.304 167.03 94.8008 168.663 94.8008H193.518C195.398 94.8008 196.853 94.2331 197.882 93.0977C198.911 91.9622 199.425 90.543 199.425 88.8398V69.52C199.425 67.7104 198.858 66.2734 197.722 65.209C196.622 64.1445 195.221 63.6123 193.518 63.6123H163.127V50.4663H193.518C195.434 50.4663 197.492 50.8034 199.691 51.4775C201.927 52.1517 203.985 53.2516 205.865 54.7773C207.781 56.2676 209.378 58.2368 210.655 60.6851C211.933 63.0978 212.571 66.0428 212.571 69.52V88.9463Z" fill="#EEEEEE"/>
<path d="M274.735 64.3042H243.6C241.72 64.3042 240.3 64.7832 239.342 65.7412C238.384 66.6637 237.905 68.0298 237.905 69.8394V108H224.067V69.8394C224.067 67.4621 224.369 65.3332 224.972 63.4526C225.575 61.5721 226.374 59.9222 227.367 58.5029C228.396 57.0482 229.567 55.8241 230.88 54.8306C232.193 53.8016 233.559 52.9678 234.978 52.3291C236.433 51.6904 237.888 51.2292 239.342 50.9453C240.833 50.626 242.216 50.4663 243.494 50.4663H274.735V64.3042Z" fill="#F0A500"/>
</svg>
