<svg width="216" height="90" viewBox="0 0 216 90" fill="none" xmlns="http://www.w3.org/2000/svg">
<path d="M114.431 67.4118C115.186 67.51 115.99 67.7565 116.843 68.1505C117.697 68.5444 118.484 69.1026 119.206 69.8252C119.961 70.5474 120.585 71.4339 121.077 72.4848C121.57 73.5026 121.816 74.6848 121.816 76.0309C121.816 77.6726 121.57 79.0848 121.077 80.2665C120.585 81.4487 119.961 82.4339 119.206 83.2218C118.484 83.977 117.68 84.5844 116.794 85.0444C115.941 85.4709 115.104 85.7996 114.283 86.0292C113.496 86.2592 112.79 86.407 112.166 86.4726C111.542 86.5052 111.132 86.5218 110.935 86.5218H105.224V82.1874H110.591C112.33 82.1874 113.692 81.6291 114.677 80.5131C115.662 79.3965 116.154 77.9026 116.154 76.0309C116.154 74.2578 115.645 72.7639 114.628 71.5487C113.61 70.3339 112.117 69.7265 110.147 69.7265H105.224V65.737H107.588C108.309 65.737 109.048 65.7209 109.803 65.6878C110.558 65.6552 111.263 65.4744 111.92 65.1461C112.576 64.8178 113.101 64.2596 113.496 63.4713C113.922 62.6835 114.135 61.5505 114.135 60.0731C114.135 59.4822 114.053 58.8744 113.889 58.2509C113.725 57.5939 113.397 57.0031 112.905 56.4774C112.412 55.9522 111.707 55.5252 110.788 55.197C109.868 54.8687 108.654 54.7044 107.144 54.7044H105.224V50.2226H107.735C109.278 50.2226 110.771 50.4031 112.215 50.7644C113.659 51.1257 114.939 51.7 116.055 52.4883C117.172 53.2761 118.058 54.3105 118.714 55.5909C119.371 56.8387 119.699 58.3326 119.699 60.0731C119.699 61.0909 119.534 62.0265 119.206 62.8805C118.878 63.7013 118.468 64.4235 117.976 65.0474C117.483 65.6713 116.909 66.197 116.252 66.6235C115.629 67.0178 115.022 67.2805 114.431 67.4118ZM97.2978 50.2226H103.206V86.5218H97.2978V50.2226ZM134.665 78.1487C134.665 79.6265 134.961 80.7265 135.552 81.4487C136.175 82.1709 137.061 82.5978 138.21 82.7291V86.7187C138.079 86.7518 137.866 86.7678 137.57 86.7678C136.454 86.7678 135.371 86.6205 134.321 86.3248C133.303 86.0291 132.401 85.5531 131.613 84.8965C130.826 84.2396 130.202 83.3696 129.742 82.2861C129.316 81.2026 129.102 79.8726 129.102 78.2965C129.102 76.7861 129.414 75.4891 130.038 74.4057C130.694 73.2891 131.514 72.3861 132.499 71.6965C133.517 70.9744 134.665 70.4491 135.946 70.1205C137.226 69.7596 138.522 69.5787 139.835 69.5787H142.001V73.0757H140.918C140.262 73.0757 139.573 73.1413 138.85 73.2726C138.128 73.4039 137.456 73.6505 136.832 74.0118C136.208 74.3726 135.683 74.8983 135.256 75.5878C134.863 76.2444 134.665 77.0983 134.665 78.1487ZM149.977 78.2965C149.977 78.5592 149.994 78.9531 150.026 79.4787C150.059 79.9713 150.125 80.48 150.223 81.0052C150.322 81.5309 150.469 82.007 150.666 82.4339C150.896 82.8605 151.191 83.1396 151.552 83.2709L149.977 86.5709C149.55 86.5709 149.091 86.4726 148.598 86.2757C148.139 86.0783 147.679 85.7996 147.22 85.4383C146.793 85.077 146.416 84.6831 146.088 84.2561C145.792 83.7965 145.562 83.3039 145.398 82.7787C145.07 83.5996 144.414 84.3383 143.429 84.9948C142.477 85.6187 141.41 86.0783 140.229 86.3739V82.6309C141.017 82.4665 141.722 82.1548 142.346 81.6948C143.002 81.2026 143.56 80.6278 144.02 79.9713V69.5787C144.02 67.97 143.938 66.6892 143.773 65.737C143.61 64.7848 143.331 64.0952 142.937 63.6687C142.543 63.2087 142.051 62.9296 141.46 62.8313C140.902 62.7 140.229 62.6344 139.441 62.6344C138.719 62.6344 138.03 62.7326 137.373 62.9296C136.75 63.0939 136.159 63.3074 135.601 63.57C135.076 63.8 134.6 64.0626 134.173 64.3578C133.779 64.6535 133.484 64.8835 133.287 65.0474L131.072 61.6492C131.4 61.2878 131.892 60.927 132.548 60.5657C133.205 60.1718 133.96 59.827 134.813 59.5313C135.667 59.2357 136.585 59.0061 137.57 58.8418C138.588 58.6448 139.638 58.5461 140.721 58.5461C141.706 58.5461 142.658 58.6448 143.577 58.8418C144.528 59.0387 145.382 59.367 146.137 59.827C146.924 60.2865 147.598 60.9105 148.156 61.6983C148.746 62.4535 149.156 63.4057 149.386 64.5552C149.616 65.7044 149.764 66.87 149.829 68.0522C149.928 69.2013 149.977 70.3505 149.977 71.4996V77.9026V78.2965ZM164.698 58.7431L165.338 61.5505V86.5218H159.381V58.7431H164.698ZM180.058 61.797C180.616 62.3552 181.043 63.0118 181.338 63.767C181.666 64.4896 181.896 65.2609 182.028 66.0818C182.192 66.87 182.29 67.6744 182.323 68.4952C182.356 69.3161 182.372 70.1205 182.372 70.9087V85.5365V86.5218H176.366V71.4013C176.366 70.2848 176.316 69.2178 176.218 68.1996C176.12 67.1818 175.89 66.2787 175.529 65.4909C175.168 64.7026 174.675 64.0952 174.052 63.6687C173.428 63.2087 172.558 62.9792 171.443 62.9792C170.983 62.9792 170.359 63.0609 169.572 63.2252C168.817 63.3565 168.078 63.5865 167.356 63.9148V60.1222C168.242 59.6626 169.194 59.2687 170.212 58.94C171.262 58.6118 172.279 58.4478 173.264 58.4478C174.741 58.4478 175.988 58.7596 177.006 59.3835C178.023 59.9744 179.041 60.7791 180.058 61.797ZM202.459 72.5831L213.488 86.5218H206.693L198.619 75.8831V69.037L205.512 58.7431H212.207L202.459 72.5831ZM190.594 86.5218V48.2522H196.6V86.5218H190.594Z" fill="#F0A500"/>
<path d="M30.5329 46.9565H24.5188V33.0723C24.5188 32.2856 24.38 31.5836 24.1025 30.9666C23.8403 30.3341 23.4779 29.7941 23.0153 29.3468C22.5527 28.8994 22.0053 28.56 21.373 28.3286C20.7562 28.0818 20.0854 27.9583 19.3606 27.9583H8.83604V46.9565H2.82196V24.927C2.82196 24.5104 2.89906 24.1248 3.05327 23.7699C3.20748 23.3997 3.42337 23.0835 3.70094 22.8212C3.97851 22.5435 4.30234 22.3276 4.67245 22.1733C5.04252 22.019 5.43575 21.9419 5.85211 21.9419H19.4069C20.1625 21.9419 20.9566 22.0267 21.7893 22.1964C22.6375 22.3661 23.4702 22.6438 24.2875 23.0295C25.1202 23.3997 25.9067 23.878 26.6469 24.4642C27.4025 25.035 28.0656 25.7369 28.6361 26.5699C29.2221 27.3876 29.6847 28.3363 30.024 29.4162C30.3632 30.4961 30.5329 31.7148 30.5329 33.0723V46.9565ZM62.7082 30.2261C62.7082 31.0591 62.5618 31.9616 62.2684 32.9335C61.9755 33.89 61.4974 34.7847 60.8346 35.6178C60.1866 36.4354 59.3309 37.1219 58.267 37.6773C57.2183 38.2326 55.9383 38.5103 54.4272 38.5103H43.5785V32.7946H54.4272C55.2443 32.7946 55.8766 32.5478 56.3238 32.0542C56.771 31.5451 56.9949 30.9203 56.9949 30.1798C56.9949 29.393 56.7402 28.776 56.2313 28.3286C55.738 27.8812 55.1365 27.6575 54.4272 27.6575H43.5785C42.7615 27.6575 42.1292 27.9121 41.682 28.4212C41.2348 28.9148 41.0112 29.5319 41.0112 30.2724V38.6723C41.0112 39.4745 41.2579 40.0993 41.7514 40.5466C42.2603 40.994 42.8848 41.2177 43.625 41.2177H54.4272V46.9565H43.5785C42.746 46.9565 41.8439 46.81 40.8724 46.5169C39.9164 46.2239 39.0219 45.753 38.1892 45.1052C37.3719 44.4417 36.6857 43.5856 36.1306 42.5367C35.5754 41.4723 35.2979 40.1841 35.2979 38.6723V30.2261C35.2979 29.393 35.4444 28.4983 35.7373 27.5418C36.0303 26.5699 36.5007 25.6752 37.1483 24.8576C37.8114 24.0245 38.6672 23.3303 39.7159 22.7749C40.7799 22.2196 42.0675 21.9419 43.5785 21.9419H54.4272C55.2599 21.9419 56.1543 22.0884 57.1105 22.3815C58.0818 22.6746 58.9762 23.1529 59.7937 23.8162C60.6264 24.4642 61.3201 25.3203 61.8755 26.3848C62.4305 27.4338 62.7082 28.7143 62.7082 30.2261ZM92.385 38.6723C92.385 39.5053 92.2385 40.4078 91.9456 41.3797C91.6527 42.3362 91.1746 43.2309 90.5114 44.0639C89.8638 44.8817 89.0081 45.5683 87.9441 46.1235C86.8954 46.6787 85.6155 46.9565 84.1044 46.9565H73.2557C72.423 46.9565 71.5208 46.81 70.5494 46.5169C69.5933 46.2239 68.6988 45.753 67.8661 45.1052C67.0491 44.4417 66.3628 43.5856 65.8074 42.5367C65.2524 41.4723 64.9747 40.1841 64.9747 38.6723C64.9747 37.8393 65.1216 36.9368 65.4145 35.9649C65.7074 34.993 66.1777 34.0982 66.8253 33.2806C67.4885 32.4476 68.3442 31.7533 69.3929 31.198C70.4568 30.6426 71.7446 30.365 73.2557 30.365H84.1044V36.1037H73.2557C72.4386 36.1037 71.8063 36.3583 71.3591 36.8673C70.9119 37.361 70.688 37.9781 70.688 38.7186C70.688 39.5053 70.9427 40.1224 71.4517 40.5698C71.9758 41.0017 72.5925 41.2177 73.3022 41.2177H84.1044C84.9215 41.2177 85.5538 40.9709 86.001 40.4773C86.4482 39.9836 86.6716 39.3665 86.6716 38.626V30.2261C86.6716 29.4393 86.4252 28.8145 85.9315 28.3517C85.4534 27.8889 84.8445 27.6575 84.1044 27.6575H70.8962V21.9419H84.1044C84.9371 21.9419 85.8315 22.0884 86.7872 22.3815C87.759 22.6746 88.6534 23.1529 89.4705 23.8162C90.3032 24.4642 90.9973 25.3203 91.5523 26.3848C92.1077 27.4338 92.385 28.7143 92.385 30.2261V38.6723Z" fill="#EEEEEE"/>
<path d="M119.402 27.9583H105.87C105.053 27.9583 104.436 28.1666 104.02 28.5831C103.604 28.9842 103.395 29.5782 103.395 30.365V46.9565H97.3812V30.365C97.3812 29.3313 97.5125 28.4057 97.7745 27.5881C98.0366 26.7705 98.3839 26.0531 98.8154 25.436C99.2626 24.8036 99.7716 24.2713 100.342 23.8394C100.913 23.392 101.507 23.0295 102.123 22.7518C102.756 22.4741 103.388 22.2736 104.02 22.1501C104.668 22.0113 105.269 21.9419 105.824 21.9419H119.402V27.9583Z" fill="#F0A500"/>
</svg>
