<svg width="819" height="464" viewBox="0 0 819 464" fill="none" xmlns="http://www.w3.org/2000/svg">
<g filter="url(#filter0_d_11_6466)">
<rect x="15" y="15" width="769" height="414" rx="25" fill="#FF5D29"/>
</g>
<path d="M246.043 248.881C246.29 249.136 246.59 249.334 246.921 249.462C247.252 249.589 247.607 249.644 247.961 249.621C248.315 249.599 248.66 249.499 248.972 249.331C249.284 249.162 249.556 248.927 249.769 248.644C257.616 237.85 261.833 224.844 261.813 211.5C261.813 197.624 257.347 184.785 249.769 174.356C249.556 174.072 249.285 173.837 248.973 173.668C248.661 173.499 248.316 173.399 247.962 173.376C247.608 173.353 247.253 173.407 246.921 173.534C246.59 173.662 246.29 173.859 246.043 174.113C245.607 174.556 245.342 175.139 245.296 175.758C245.25 176.377 245.425 176.993 245.79 177.495C252.933 187.393 256.769 199.294 256.75 211.5C256.75 224.192 252.69 235.937 245.795 245.5C245.046 246.538 245.137 247.98 246.043 248.881V248.881Z" fill="#EEEEEE"/>
<path d="M235.128 237.972C235.38 238.233 235.686 238.434 236.026 238.562C236.365 238.689 236.728 238.74 237.09 238.709C237.451 238.678 237.801 238.568 238.114 238.385C238.427 238.202 238.695 237.952 238.9 237.653C243.956 229.869 246.64 220.782 246.625 211.5C246.625 201.856 243.79 192.87 238.9 185.347C238.697 185.046 238.429 184.795 238.115 184.611C237.802 184.427 237.452 184.316 237.09 184.285C236.728 184.255 236.364 184.305 236.025 184.434C235.685 184.563 235.379 184.766 235.128 185.028C234.707 185.46 234.445 186.021 234.385 186.621C234.326 187.221 234.471 187.823 234.799 188.329C239.228 195.244 241.576 203.288 241.562 211.5C241.575 219.711 239.227 227.752 234.799 234.666C234.131 235.709 234.252 237.096 235.128 237.972V237.972ZM224.077 226.92C225.221 228.065 227.139 227.857 227.873 226.414C230.224 221.795 231.446 216.683 231.437 211.5C231.437 206.134 230.152 201.061 227.873 196.586C227.139 195.143 225.221 194.936 224.077 196.08L224.001 196.156C223.191 196.966 223.039 198.216 223.545 199.249C225.414 203.062 226.382 207.253 226.375 211.5C226.375 215.894 225.357 220.056 223.54 223.751C223.034 224.779 223.186 226.029 224.001 226.839L224.077 226.92ZM214.023 216.866C215.015 217.859 216.655 217.869 217.364 216.664C218.293 215.102 218.783 213.318 218.781 211.5C218.783 209.682 218.293 207.898 217.364 206.336C216.655 205.131 215.015 205.142 214.023 206.134L210.448 209.708C209.974 210.183 209.707 210.826 209.707 211.497C209.707 212.169 209.974 212.812 210.448 213.287L214.028 216.866H214.023Z" fill="#EEEEEE"/>
<path d="M606.652 289.34C607.745 289.482 608.91 289.839 610.146 290.409C611.381 290.979 612.522 291.787 613.567 292.833C614.66 293.879 615.563 295.162 616.276 296.683C616.989 298.156 617.346 299.867 617.346 301.815C617.346 304.192 616.989 306.235 616.276 307.946C615.563 309.657 614.66 311.083 613.567 312.224C612.522 313.317 611.357 314.196 610.074 314.861C608.839 315.479 607.627 315.954 606.438 316.287C605.298 316.62 604.276 316.834 603.373 316.929C602.47 316.976 601.876 317 601.591 317H593.321V310.727H601.092C603.611 310.727 605.583 309.919 607.009 308.303C608.435 306.687 609.147 304.524 609.147 301.815C609.147 299.249 608.411 297.087 606.938 295.328C605.464 293.57 603.302 292.69 600.45 292.69H593.321V286.916H596.743C597.789 286.916 598.858 286.892 599.951 286.845C601.044 286.797 602.066 286.536 603.017 286.061C603.967 285.585 604.728 284.777 605.298 283.637C605.916 282.496 606.225 280.856 606.225 278.718C606.225 277.862 606.106 276.983 605.868 276.08C605.631 275.13 605.155 274.274 604.442 273.514C603.729 272.753 602.708 272.135 601.377 271.66C600.046 271.185 598.288 270.947 596.102 270.947H593.321V264.46H596.957C599.191 264.46 601.353 264.721 603.444 265.244C605.535 265.767 607.389 266.599 609.005 267.739C610.621 268.88 611.904 270.377 612.854 272.23C613.805 274.036 614.28 276.199 614.28 278.718C614.28 280.191 614.043 281.546 613.567 282.781C613.092 283.969 612.498 285.015 611.785 285.918C611.072 286.821 610.241 287.581 609.29 288.199C608.387 288.77 607.508 289.15 606.652 289.34ZM581.844 264.46H590.398V317H581.844V264.46ZM635.952 304.881C635.952 307.02 636.38 308.612 637.235 309.657C638.138 310.703 639.422 311.321 641.085 311.511V317.285C640.895 317.333 640.586 317.356 640.158 317.356C638.542 317.356 636.974 317.143 635.453 316.715C633.98 316.287 632.673 315.598 631.532 314.647C630.392 313.697 629.489 312.438 628.823 310.869C628.205 309.301 627.896 307.376 627.896 305.095C627.896 302.909 628.348 301.031 629.251 299.463C630.201 297.847 631.39 296.54 632.815 295.542C634.289 294.496 635.952 293.736 637.806 293.261C639.659 292.738 641.536 292.477 643.438 292.477H646.574V297.538H645.006C644.055 297.538 643.057 297.633 642.012 297.823C640.966 298.013 639.992 298.37 639.089 298.893C638.186 299.415 637.425 300.176 636.808 301.174C636.237 302.124 635.952 303.36 635.952 304.881ZM658.123 305.095C658.123 305.475 658.147 306.045 658.194 306.806C658.242 307.519 658.337 308.255 658.479 309.016C658.622 309.776 658.836 310.465 659.121 311.083C659.454 311.701 659.882 312.105 660.404 312.295L658.123 317.071C657.505 317.071 656.84 316.929 656.127 316.644C655.462 316.358 654.796 315.954 654.131 315.432C653.513 314.909 652.966 314.339 652.491 313.721C652.063 313.055 651.731 312.342 651.493 311.582C651.018 312.77 650.067 313.84 648.642 314.79C647.263 315.693 645.719 316.358 644.008 316.786V311.368C645.148 311.131 646.17 310.679 647.073 310.014C648.024 309.301 648.832 308.469 649.497 307.519V292.477C649.497 290.148 649.378 288.294 649.141 286.916C648.903 285.538 648.499 284.54 647.929 283.922C647.358 283.257 646.646 282.853 645.79 282.71C644.982 282.52 644.008 282.425 642.867 282.425C641.822 282.425 640.824 282.567 639.873 282.853C638.97 283.09 638.115 283.399 637.307 283.779C636.546 284.112 635.857 284.492 635.239 284.92C634.669 285.348 634.241 285.68 633.956 285.918L630.748 280.999C631.223 280.476 631.936 279.953 632.887 279.431C633.837 278.86 634.93 278.361 636.166 277.934C637.402 277.506 638.732 277.173 640.158 276.936C641.632 276.65 643.152 276.508 644.721 276.508C646.146 276.508 647.525 276.65 648.855 276.936C650.234 277.221 651.469 277.696 652.562 278.361C653.703 279.027 654.677 279.93 655.485 281.07C656.341 282.163 656.935 283.542 657.268 285.205C657.6 286.868 657.814 288.556 657.909 290.267C658.052 291.93 658.123 293.593 658.123 295.257V304.524V305.095ZM679.438 276.793L680.365 280.856V317H671.739V276.793H679.438ZM701.681 281.213C702.489 282.021 703.106 282.971 703.534 284.064C704.009 285.11 704.342 286.227 704.532 287.415C704.77 288.556 704.912 289.72 704.96 290.908C705.007 292.096 705.031 293.261 705.031 294.401V315.574V317H696.334V295.114C696.334 293.498 696.263 291.954 696.12 290.48C695.978 289.007 695.645 287.7 695.122 286.56C694.599 285.419 693.886 284.54 692.983 283.922C692.08 283.257 690.821 282.924 689.205 282.924C688.54 282.924 687.637 283.043 686.496 283.28C685.403 283.47 684.334 283.803 683.288 284.278V278.789C684.571 278.124 685.95 277.553 687.423 277.078C688.944 276.603 690.417 276.365 691.843 276.365C693.981 276.365 695.787 276.817 697.261 277.72C698.734 278.575 700.207 279.74 701.681 281.213ZM734.117 296.825L750.086 317H740.248L728.557 301.602V291.692L738.537 276.793H748.232L734.117 296.825ZM716.937 317V261.608H725.634V317H716.937Z" fill="black"/>
<path d="M478.051 263H468.783V241.613C468.783 240.401 468.569 239.32 468.142 238.37C467.738 237.395 467.179 236.564 466.466 235.875C465.753 235.185 464.91 234.663 463.936 234.306C462.985 233.926 461.951 233.736 460.834 233.736H444.616V263H435.349V229.066C435.349 228.425 435.467 227.831 435.705 227.284C435.943 226.714 436.275 226.227 436.703 225.823C437.131 225.395 437.63 225.062 438.2 224.825C438.771 224.587 439.376 224.468 440.018 224.468H460.906C462.07 224.468 463.294 224.599 464.577 224.86C465.884 225.122 467.167 225.549 468.427 226.144C469.71 226.714 470.922 227.451 472.062 228.354C473.227 229.233 474.249 230.314 475.128 231.597C476.031 232.857 476.744 234.318 477.267 235.981C477.789 237.645 478.051 239.522 478.051 241.613V263ZM527.632 237.229C527.632 238.512 527.407 239.902 526.955 241.399C526.504 242.873 525.767 244.251 524.745 245.534C523.747 246.794 522.428 247.851 520.789 248.707C519.173 249.562 517.2 249.99 514.872 249.99H498.154V241.186H514.872C516.131 241.186 517.105 240.805 517.794 240.045C518.484 239.261 518.828 238.298 518.828 237.158C518.828 235.946 518.436 234.995 517.652 234.306C516.891 233.617 515.965 233.272 514.872 233.272H498.154C496.895 233.272 495.921 233.665 495.231 234.449C494.542 235.209 494.198 236.16 494.198 237.3V250.239C494.198 251.475 494.578 252.437 495.338 253.126C496.123 253.816 497.085 254.16 498.226 254.16H514.872V263H498.154C496.871 263 495.481 262.774 493.984 262.323C492.511 261.871 491.132 261.146 489.849 260.148C488.59 259.127 487.532 257.808 486.677 256.192C485.821 254.552 485.394 252.568 485.394 250.239V237.229C485.394 235.946 485.619 234.568 486.071 233.094C486.522 231.597 487.247 230.219 488.245 228.959C489.267 227.676 490.586 226.607 492.202 225.751C493.841 224.896 495.826 224.468 498.154 224.468H514.872C516.155 224.468 517.533 224.694 519.006 225.146C520.503 225.597 521.882 226.334 523.141 227.355C524.424 228.354 525.494 229.672 526.349 231.312C527.205 232.928 527.632 234.9 527.632 237.229ZM573.364 250.239C573.364 251.522 573.139 252.913 572.687 254.41C572.236 255.883 571.499 257.261 570.477 258.544C569.479 259.804 568.16 260.861 566.521 261.717C564.905 262.572 562.932 263 560.604 263H543.886C542.603 263 541.213 262.774 539.716 262.323C538.243 261.871 536.864 261.146 535.581 260.148C534.322 259.127 533.264 257.808 532.409 256.192C531.553 254.552 531.125 252.568 531.125 250.239C531.125 248.956 531.351 247.566 531.803 246.069C532.254 244.572 532.979 243.194 533.977 241.934C534.999 240.651 536.318 239.582 537.934 238.726C539.573 237.871 541.557 237.443 543.886 237.443H560.604V246.283H543.886C542.627 246.283 541.653 246.675 540.963 247.459C540.274 248.219 539.93 249.17 539.93 250.311C539.93 251.522 540.322 252.473 541.106 253.162C541.914 253.827 542.864 254.16 543.958 254.16H560.604C561.863 254.16 562.837 253.78 563.526 253.02C564.215 252.259 564.56 251.309 564.56 250.168V237.229C564.56 236.017 564.18 235.055 563.419 234.342C562.683 233.629 561.744 233.272 560.604 233.272H540.25V224.468H560.604C561.887 224.468 563.265 224.694 564.738 225.146C566.235 225.597 567.614 226.334 568.873 227.355C570.156 228.354 571.226 229.672 572.081 231.312C572.937 232.928 573.364 234.9 573.364 237.229V250.239Z" fill="#EEEEEE"/>
<path d="M614.997 233.736H594.145C592.886 233.736 591.935 234.057 591.293 234.698C590.652 235.316 590.331 236.231 590.331 237.443V263H581.063V237.443C581.063 235.851 581.265 234.425 581.669 233.166C582.073 231.906 582.608 230.801 583.273 229.851C583.963 228.876 584.747 228.056 585.626 227.391C586.505 226.702 587.42 226.144 588.371 225.716C589.345 225.288 590.319 224.979 591.293 224.789C592.292 224.575 593.218 224.468 594.074 224.468H614.997V233.736Z" fill="black"/>
<path d="M130.709 364V341.362H142.391C143.689 341.362 144.811 341.593 145.757 342.055C146.703 342.495 147.429 343.122 147.935 343.936C148.463 344.75 148.727 345.718 148.727 346.84C148.727 347.698 148.573 348.49 148.265 349.216C147.957 349.942 147.528 350.547 146.978 351.031C146.428 351.515 145.801 351.878 145.097 352.12V352.252C145.889 352.428 146.604 352.747 147.242 353.209C147.88 353.671 148.386 354.287 148.76 355.057C149.156 355.805 149.354 356.729 149.354 357.829C149.354 359.303 149.046 360.491 148.43 361.393C147.814 362.295 146.989 362.955 145.955 363.373C144.921 363.791 143.733 364 142.391 364H130.709ZM133.844 361.294H142.358C143.48 361.294 144.393 361.008 145.097 360.436C145.801 359.842 146.153 358.863 146.153 357.499C146.153 356.663 145.999 355.97 145.691 355.42C145.383 354.848 144.932 354.43 144.338 354.166C143.744 353.88 142.996 353.737 142.094 353.737H133.844V361.294ZM133.844 351.064H141.797C142.545 351.064 143.194 350.921 143.744 350.635C144.294 350.327 144.723 349.909 145.031 349.381C145.361 348.831 145.526 348.215 145.526 347.533C145.526 346.345 145.207 345.476 144.569 344.926C143.931 344.354 143.084 344.068 142.028 344.068H133.844V351.064ZM160.12 364.396C158.404 364.396 156.952 364.077 155.764 363.439C154.598 362.779 153.707 361.778 153.091 360.436C152.497 359.094 152.2 357.389 152.2 355.321C152.2 353.231 152.497 351.526 153.091 350.206C153.707 348.864 154.609 347.874 155.797 347.236C156.985 346.576 158.47 346.246 160.252 346.246C161.88 346.246 163.244 346.565 164.344 347.203C165.444 347.819 166.269 348.754 166.819 350.008C167.391 351.24 167.677 352.791 167.677 354.661V356.047H155.203C155.247 357.433 155.445 358.577 155.797 359.479C156.171 360.359 156.721 361.008 157.447 361.426C158.173 361.822 159.086 362.02 160.186 362.02C160.934 362.02 161.583 361.932 162.133 361.756C162.705 361.558 163.178 361.283 163.552 360.931C163.948 360.579 164.245 360.161 164.443 359.677C164.641 359.193 164.751 358.665 164.773 358.093H167.611C167.589 359.017 167.413 359.875 167.083 360.667C166.753 361.437 166.269 362.097 165.631 362.647C164.993 363.197 164.212 363.626 163.288 363.934C162.364 364.242 161.308 364.396 160.12 364.396ZM155.269 353.869H164.674C164.674 352.901 164.564 352.087 164.344 351.427C164.124 350.767 163.805 350.228 163.387 349.81C162.991 349.392 162.518 349.095 161.968 348.919C161.44 348.721 160.835 348.622 160.153 348.622C159.141 348.622 158.283 348.809 157.579 349.183C156.875 349.557 156.336 350.129 155.962 350.899C155.588 351.669 155.357 352.659 155.269 353.869ZM171.269 364V346.642H173.612L173.876 349.249H174.107C174.569 348.545 175.086 347.973 175.658 347.533C176.252 347.093 176.901 346.774 177.605 346.576C178.331 346.356 179.101 346.246 179.915 346.246C181.015 346.246 181.972 346.433 182.786 346.807C183.622 347.181 184.271 347.786 184.733 348.622C185.217 349.458 185.459 350.591 185.459 352.021V364H182.555V352.417C182.555 351.691 182.456 351.097 182.258 350.635C182.082 350.173 181.829 349.81 181.499 349.546C181.191 349.282 180.806 349.095 180.344 348.985C179.904 348.875 179.409 348.82 178.859 348.82C178.045 348.82 177.275 349.018 176.549 349.414C175.823 349.81 175.24 350.382 174.8 351.13C174.382 351.878 174.173 352.769 174.173 353.803V364H171.269ZM189.864 343.375V340.141H192.768V343.375H189.864ZM189.105 370.006C188.863 370.006 188.599 369.984 188.313 369.94C188.027 369.918 187.752 369.874 187.488 369.808C187.224 369.764 187.004 369.709 186.828 369.643V367.63H188.313C188.819 367.63 189.204 367.487 189.468 367.201C189.732 366.937 189.864 366.552 189.864 366.046V346.642H192.768V366.112C192.768 366.772 192.658 367.399 192.438 367.993C192.218 368.587 191.844 369.071 191.316 369.445C190.81 369.819 190.073 370.006 189.105 370.006ZM201.568 364.396C200.93 364.396 200.292 364.319 199.654 364.165C199.016 364.011 198.422 363.758 197.872 363.406C197.322 363.054 196.882 362.57 196.552 361.954C196.222 361.316 196.057 360.524 196.057 359.578C196.057 358.39 196.343 357.411 196.915 356.641C197.487 355.871 198.279 355.277 199.291 354.859C200.325 354.419 201.546 354.122 202.954 353.968C204.362 353.792 205.891 353.704 207.541 353.704V351.724C207.541 351.086 207.431 350.536 207.211 350.074C206.991 349.612 206.595 349.26 206.023 349.018C205.473 348.754 204.681 348.622 203.647 348.622C202.657 348.622 201.865 348.754 201.271 349.018C200.699 349.26 200.292 349.579 200.05 349.975C199.83 350.371 199.72 350.811 199.72 351.295V351.79H196.915C196.893 351.68 196.882 351.57 196.882 351.46C196.882 351.35 196.882 351.218 196.882 351.064C196.882 350.008 197.168 349.128 197.74 348.424C198.334 347.698 199.159 347.159 200.215 346.807C201.271 346.433 202.481 346.246 203.845 346.246C205.297 346.246 206.507 346.455 207.475 346.873C208.465 347.291 209.202 347.885 209.686 348.655C210.192 349.425 210.445 350.349 210.445 351.427V360.832C210.445 361.25 210.544 361.547 210.742 361.723C210.94 361.877 211.182 361.954 211.468 361.954H212.755V363.868C212.447 364 212.106 364.11 211.732 364.198C211.358 364.308 210.929 364.363 210.445 364.363C209.873 364.363 209.4 364.242 209.026 364C208.652 363.78 208.366 363.472 208.168 363.076C207.97 362.658 207.838 362.196 207.772 361.69H207.541C207.145 362.24 206.639 362.724 206.023 363.142C205.429 363.538 204.758 363.846 204.01 364.066C203.262 364.286 202.448 364.396 201.568 364.396ZM202.294 361.954C202.998 361.954 203.658 361.844 204.274 361.624C204.912 361.404 205.473 361.096 205.957 360.7C206.441 360.282 206.826 359.787 207.112 359.215C207.398 358.643 207.541 358.016 207.541 357.334V355.882C205.759 355.882 204.241 355.981 202.987 356.179C201.733 356.377 200.765 356.729 200.083 357.235C199.423 357.741 199.093 358.456 199.093 359.38C199.093 359.974 199.225 360.458 199.489 360.832C199.753 361.206 200.127 361.492 200.611 361.69C201.095 361.866 201.656 361.954 202.294 361.954ZM215.194 364V346.642H217.537L217.801 349.249H218.032C218.472 348.545 218.967 347.973 219.517 347.533C220.067 347.093 220.672 346.774 221.332 346.576C221.992 346.356 222.707 346.246 223.477 346.246C224.599 346.246 225.567 346.477 226.381 346.939C227.195 347.379 227.8 348.149 228.196 349.249H228.394C228.812 348.545 229.296 347.984 229.846 347.566C230.396 347.126 231.012 346.796 231.694 346.576C232.376 346.356 233.102 346.246 233.872 346.246C234.928 346.246 235.852 346.433 236.644 346.807C237.436 347.159 238.052 347.753 238.492 348.589C238.954 349.403 239.185 350.503 239.185 351.889V364H236.281V352.351C236.281 351.647 236.193 351.064 236.017 350.602C235.863 350.14 235.632 349.788 235.324 349.546C235.016 349.282 234.653 349.095 234.235 348.985C233.839 348.875 233.41 348.82 232.948 348.82C232.178 348.82 231.463 349.018 230.803 349.414C230.165 349.81 229.648 350.382 229.252 351.13C228.856 351.878 228.658 352.769 228.658 353.803V364H225.754V352.351C225.754 351.647 225.666 351.064 225.49 350.602C225.314 350.14 225.083 349.788 224.797 349.546C224.511 349.282 224.159 349.095 223.741 348.985C223.345 348.875 222.927 348.82 222.487 348.82C221.695 348.82 220.958 349.018 220.276 349.414C219.616 349.81 219.088 350.382 218.692 351.13C218.296 351.878 218.098 352.769 218.098 353.803V364H215.194ZM243.586 343.375V340.141H246.49V343.375H243.586ZM243.586 364V346.642H246.49V364H243.586ZM250.998 364V346.642H253.341L253.605 349.249H253.836C254.298 348.545 254.815 347.973 255.387 347.533C255.981 347.093 256.63 346.774 257.334 346.576C258.06 346.356 258.83 346.246 259.644 346.246C260.744 346.246 261.701 346.433 262.515 346.807C263.351 347.181 264 347.786 264.462 348.622C264.946 349.458 265.188 350.591 265.188 352.021V364H262.284V352.417C262.284 351.691 262.185 351.097 261.987 350.635C261.811 350.173 261.558 349.81 261.228 349.546C260.92 349.282 260.535 349.095 260.073 348.985C259.633 348.875 259.138 348.82 258.588 348.82C257.774 348.82 257.004 349.018 256.278 349.414C255.552 349.81 254.969 350.382 254.529 351.13C254.111 351.878 253.902 352.769 253.902 353.803V364H250.998ZM277.05 364V341.362H293.088V344.068H280.185V351.328H291.933V354.001H280.185V364H277.05ZM296.695 364V346.642H299.038L299.302 349.513H299.533C299.709 348.963 299.951 348.446 300.259 347.962C300.567 347.456 300.985 347.049 301.513 346.741C302.041 346.411 302.69 346.246 303.46 346.246C303.79 346.246 304.087 346.279 304.351 346.345C304.637 346.389 304.846 346.444 304.978 346.51V349.183H303.889C303.141 349.183 302.492 349.315 301.942 349.579C301.414 349.821 300.974 350.173 300.622 350.635C300.27 351.097 300.006 351.647 299.83 352.285C299.676 352.923 299.599 353.605 299.599 354.331V364H296.695ZM311.686 364.396C311.048 364.396 310.41 364.319 309.772 364.165C309.134 364.011 308.54 363.758 307.99 363.406C307.44 363.054 307 362.57 306.67 361.954C306.34 361.316 306.175 360.524 306.175 359.578C306.175 358.39 306.461 357.411 307.033 356.641C307.605 355.871 308.397 355.277 309.409 354.859C310.443 354.419 311.664 354.122 313.072 353.968C314.48 353.792 316.009 353.704 317.659 353.704V351.724C317.659 351.086 317.549 350.536 317.329 350.074C317.109 349.612 316.713 349.26 316.141 349.018C315.591 348.754 314.799 348.622 313.765 348.622C312.775 348.622 311.983 348.754 311.389 349.018C310.817 349.26 310.41 349.579 310.168 349.975C309.948 350.371 309.838 350.811 309.838 351.295V351.79H307.033C307.011 351.68 307 351.57 307 351.46C307 351.35 307 351.218 307 351.064C307 350.008 307.286 349.128 307.858 348.424C308.452 347.698 309.277 347.159 310.333 346.807C311.389 346.433 312.599 346.246 313.963 346.246C315.415 346.246 316.625 346.455 317.593 346.873C318.583 347.291 319.32 347.885 319.804 348.655C320.31 349.425 320.563 350.349 320.563 351.427V360.832C320.563 361.25 320.662 361.547 320.86 361.723C321.058 361.877 321.3 361.954 321.586 361.954H322.873V363.868C322.565 364 322.224 364.11 321.85 364.198C321.476 364.308 321.047 364.363 320.563 364.363C319.991 364.363 319.518 364.242 319.144 364C318.77 363.78 318.484 363.472 318.286 363.076C318.088 362.658 317.956 362.196 317.89 361.69H317.659C317.263 362.24 316.757 362.724 316.141 363.142C315.547 363.538 314.876 363.846 314.128 364.066C313.38 364.286 312.566 364.396 311.686 364.396ZM312.412 361.954C313.116 361.954 313.776 361.844 314.392 361.624C315.03 361.404 315.591 361.096 316.075 360.7C316.559 360.282 316.944 359.787 317.23 359.215C317.516 358.643 317.659 358.016 317.659 357.334V355.882C315.877 355.882 314.359 355.981 313.105 356.179C311.851 356.377 310.883 356.729 310.201 357.235C309.541 357.741 309.211 358.456 309.211 359.38C309.211 359.974 309.343 360.458 309.607 360.832C309.871 361.206 310.245 361.492 310.729 361.69C311.213 361.866 311.774 361.954 312.412 361.954ZM325.312 364V346.642H327.655L327.919 349.249H328.15C328.612 348.545 329.129 347.973 329.701 347.533C330.295 347.093 330.944 346.774 331.648 346.576C332.374 346.356 333.144 346.246 333.958 346.246C335.058 346.246 336.015 346.433 336.829 346.807C337.665 347.181 338.314 347.786 338.776 348.622C339.26 349.458 339.502 350.591 339.502 352.021V364H336.598V352.417C336.598 351.691 336.499 351.097 336.301 350.635C336.125 350.173 335.872 349.81 335.542 349.546C335.234 349.282 334.849 349.095 334.387 348.985C333.947 348.875 333.452 348.82 332.902 348.82C332.088 348.82 331.318 349.018 330.592 349.414C329.866 349.81 329.283 350.382 328.843 351.13C328.425 351.878 328.216 352.769 328.216 353.803V364H325.312ZM343.907 364V340.141H346.811V355.057L354.17 346.642H357.602L351.662 353.374L357.932 364H354.599L349.781 355.519L346.811 358.522V364H343.907ZM360.858 364V340.141H363.762V364H360.858ZM368.27 343.375V340.141H371.174V343.375H368.27ZM368.27 364V346.642H371.174V364H368.27ZM375.682 364V346.642H378.025L378.289 349.249H378.52C378.982 348.545 379.499 347.973 380.071 347.533C380.665 347.093 381.314 346.774 382.018 346.576C382.744 346.356 383.514 346.246 384.328 346.246C385.428 346.246 386.385 346.433 387.199 346.807C388.035 347.181 388.684 347.786 389.146 348.622C389.63 349.458 389.872 350.591 389.872 352.021V364H386.968V352.417C386.968 351.691 386.869 351.097 386.671 350.635C386.495 350.173 386.242 349.81 385.912 349.546C385.604 349.282 385.219 349.095 384.757 348.985C384.317 348.875 383.822 348.82 383.272 348.82C382.458 348.82 381.688 349.018 380.962 349.414C380.236 349.81 379.653 350.382 379.213 351.13C378.795 351.878 378.586 352.769 378.586 353.803V364H375.682Z" fill="#EEEEEE"/>
<path d="M620.406 134V126.723C620.406 126.356 620.387 125.982 620.349 125.602C620.324 125.209 620.292 124.817 620.254 124.424H622.116L622.287 126.438H622.059C622.325 125.741 622.73 125.203 623.275 124.823C623.832 124.443 624.497 124.253 625.27 124.253C626.055 124.253 626.695 124.443 627.189 124.823C627.696 125.19 628.044 125.76 628.234 126.533H627.93C628.183 125.836 628.614 125.285 629.222 124.88C629.83 124.462 630.533 124.253 631.331 124.253C632.395 124.253 633.193 124.563 633.725 125.184C634.257 125.805 634.523 126.767 634.523 128.072V134H632.604V128.167C632.604 127.331 632.458 126.729 632.167 126.362C631.888 125.982 631.432 125.792 630.799 125.792C630.064 125.792 629.482 126.045 629.051 126.552C628.62 127.059 628.405 127.743 628.405 128.604V134H626.486V128.167C626.486 127.331 626.34 126.729 626.049 126.362C625.77 125.982 625.314 125.792 624.681 125.792C623.946 125.792 623.37 126.045 622.952 126.552C622.534 127.059 622.325 127.743 622.325 128.604V134H620.406ZM640.939 134.171C640.091 134.171 639.35 133.975 638.716 133.582C638.083 133.189 637.589 132.619 637.234 131.872C636.892 131.125 636.721 130.238 636.721 129.212C636.721 128.173 636.892 127.287 637.234 126.552C637.589 125.817 638.083 125.254 638.716 124.861C639.35 124.456 640.091 124.253 640.939 124.253C641.775 124.253 642.504 124.462 643.124 124.88C643.745 125.298 644.157 125.868 644.359 126.59H644.15L644.34 124.424H646.202C646.164 124.817 646.126 125.209 646.088 125.602C646.063 125.982 646.05 126.356 646.05 126.723V134H644.131V131.872H644.34C644.138 132.581 643.72 133.145 643.086 133.563C642.466 133.968 641.75 134.171 640.939 134.171ZM641.414 132.67C642.238 132.67 642.896 132.379 643.39 131.796C643.897 131.213 644.15 130.352 644.15 129.212C644.15 128.072 643.897 127.217 643.39 126.647C642.896 126.064 642.238 125.773 641.414 125.773C640.578 125.773 639.907 126.064 639.4 126.647C638.906 127.217 638.659 128.072 638.659 129.212C638.659 130.352 638.906 131.213 639.4 131.796C639.894 132.379 640.566 132.67 641.414 132.67ZM652.137 134.171C651.339 134.171 650.605 134.07 649.933 133.867C649.262 133.664 648.705 133.379 648.261 133.012L648.85 131.701C649.319 132.056 649.838 132.322 650.408 132.499C650.978 132.676 651.561 132.765 652.156 132.765C652.853 132.765 653.379 132.645 653.733 132.404C654.088 132.151 654.265 131.809 654.265 131.378C654.265 131.049 654.151 130.783 653.923 130.58C653.708 130.377 653.347 130.225 652.84 130.124L651.016 129.763C650.206 129.586 649.591 129.282 649.173 128.851C648.755 128.42 648.546 127.869 648.546 127.198C648.546 126.628 648.698 126.121 649.002 125.678C649.319 125.235 649.762 124.886 650.332 124.633C650.915 124.38 651.593 124.253 652.365 124.253C653.075 124.253 653.733 124.354 654.341 124.557C654.949 124.76 655.456 125.051 655.861 125.431L655.253 126.704C654.861 126.375 654.417 126.121 653.923 125.944C653.429 125.754 652.929 125.659 652.422 125.659C651.713 125.659 651.187 125.792 650.845 126.058C650.503 126.324 650.332 126.672 650.332 127.103C650.332 127.432 650.434 127.705 650.636 127.92C650.852 128.123 651.187 128.281 651.643 128.395L653.467 128.756C654.329 128.933 654.975 129.225 655.405 129.63C655.836 130.035 656.051 130.58 656.051 131.264C656.051 131.859 655.887 132.379 655.557 132.822C655.228 133.265 654.772 133.601 654.189 133.829C653.607 134.057 652.923 134.171 652.137 134.171ZM661.944 134.171C660.906 134.171 660.12 133.892 659.588 133.335C659.056 132.765 658.79 131.916 658.79 130.789V125.906H656.928V124.424H658.79V121.897L660.709 121.384V124.424H663.369V125.906H660.709V130.618C660.709 131.327 660.836 131.834 661.089 132.138C661.343 132.442 661.71 132.594 662.191 132.594C662.432 132.594 662.641 132.575 662.818 132.537C663.008 132.486 663.179 132.429 663.331 132.366V133.924C663.141 134 662.92 134.057 662.666 134.095C662.413 134.146 662.172 134.171 661.944 134.171ZM669.457 134.171C667.912 134.171 666.696 133.734 665.809 132.86C664.922 131.986 664.479 130.776 664.479 129.231C664.479 128.23 664.669 127.356 665.049 126.609C665.442 125.862 665.98 125.285 666.664 124.88C667.361 124.462 668.165 124.253 669.077 124.253C669.976 124.253 670.73 124.443 671.338 124.823C671.946 125.203 672.408 125.741 672.725 126.438C673.042 127.122 673.2 127.933 673.2 128.87V129.478H665.98V128.376H671.889L671.566 128.623C671.566 127.673 671.351 126.938 670.92 126.419C670.502 125.887 669.894 125.621 669.096 125.621C668.209 125.621 667.525 125.931 667.044 126.552C666.563 127.16 666.322 128.002 666.322 129.079V129.269C666.322 130.396 666.594 131.245 667.139 131.815C667.696 132.385 668.482 132.67 669.495 132.67C670.052 132.67 670.572 132.594 671.053 132.442C671.547 132.277 672.016 132.011 672.459 131.644L673.086 132.955C672.643 133.348 672.104 133.652 671.471 133.867C670.838 134.07 670.166 134.171 669.457 134.171ZM675.364 134V126.799C675.364 126.406 675.351 126.014 675.326 125.621C675.313 125.216 675.288 124.817 675.25 124.424H677.112L677.321 126.894H677.017C677.144 126.299 677.359 125.805 677.663 125.412C677.967 125.019 678.334 124.728 678.765 124.538C679.208 124.348 679.671 124.253 680.152 124.253C680.355 124.253 680.526 124.266 680.665 124.291C680.804 124.304 680.944 124.329 681.083 124.367L681.064 126.077C680.849 125.988 680.659 125.938 680.494 125.925C680.342 125.9 680.152 125.887 679.924 125.887C679.367 125.887 678.892 126.014 678.499 126.267C678.106 126.508 677.809 126.837 677.606 127.255C677.403 127.673 677.302 128.123 677.302 128.604V134H675.364ZM686.633 134.171C685.671 134.171 684.828 133.975 684.106 133.582C683.397 133.177 682.846 132.6 682.453 131.853C682.073 131.093 681.883 130.194 681.883 129.155C681.883 128.129 682.08 127.249 682.472 126.514C682.865 125.779 683.416 125.222 684.125 124.842C684.835 124.449 685.671 124.253 686.633 124.253C687.254 124.253 687.856 124.361 688.438 124.576C689.021 124.779 689.502 125.07 689.882 125.45L689.255 126.799C688.901 126.457 688.502 126.204 688.058 126.039C687.615 125.862 687.184 125.773 686.766 125.773C685.854 125.773 685.139 126.064 684.619 126.647C684.1 127.23 683.84 128.072 683.84 129.174C683.84 130.289 684.1 131.144 684.619 131.739C685.139 132.334 685.854 132.632 686.766 132.632C687.172 132.632 687.596 132.556 688.039 132.404C688.483 132.239 688.888 131.98 689.255 131.625L689.882 132.974C689.49 133.354 688.996 133.652 688.4 133.867C687.818 134.07 687.229 134.171 686.633 134.171ZM695.509 134.171C694.66 134.171 693.919 133.975 693.286 133.582C692.652 133.189 692.158 132.619 691.804 131.872C691.462 131.125 691.291 130.238 691.291 129.212C691.291 128.173 691.462 127.287 691.804 126.552C692.158 125.817 692.652 125.254 693.286 124.861C693.919 124.456 694.66 124.253 695.509 124.253C696.345 124.253 697.073 124.462 697.694 124.88C698.314 125.298 698.726 125.868 698.929 126.59H698.72L698.91 124.424H700.772C700.734 124.817 700.696 125.209 700.658 125.602C700.632 125.982 700.62 126.356 700.62 126.723V134H698.701V131.872H698.91C698.707 132.581 698.289 133.145 697.656 133.563C697.035 133.968 696.319 134.171 695.509 134.171ZM695.984 132.67C696.807 132.67 697.466 132.379 697.96 131.796C698.466 131.213 698.72 130.352 698.72 129.212C698.72 128.072 698.466 127.217 697.96 126.647C697.466 126.064 696.807 125.773 695.984 125.773C695.148 125.773 694.476 126.064 693.97 126.647C693.476 127.217 693.229 128.072 693.229 129.212C693.229 130.352 693.476 131.213 693.97 131.796C694.464 132.379 695.135 132.67 695.984 132.67ZM703.382 134V126.799C703.382 126.406 703.369 126.014 703.344 125.621C703.331 125.216 703.306 124.817 703.268 124.424H705.13L705.339 126.894H705.035C705.161 126.299 705.377 125.805 705.681 125.412C705.985 125.019 706.352 124.728 706.783 124.538C707.226 124.348 707.688 124.253 708.17 124.253C708.372 124.253 708.543 124.266 708.683 124.291C708.822 124.304 708.961 124.329 709.101 124.367L709.082 126.077C708.866 125.988 708.676 125.938 708.512 125.925C708.36 125.9 708.17 125.887 707.942 125.887C707.384 125.887 706.909 126.014 706.517 126.267C706.124 126.508 705.826 126.837 705.624 127.255C705.421 127.673 705.32 128.123 705.32 128.604V134H703.382ZM714.119 134.171C713.283 134.171 712.542 133.975 711.896 133.582C711.263 133.189 710.769 132.619 710.414 131.872C710.072 131.125 709.901 130.238 709.901 129.212C709.901 128.173 710.072 127.287 710.414 126.552C710.769 125.817 711.263 125.254 711.896 124.861C712.542 124.456 713.283 124.253 714.119 124.253C714.942 124.253 715.664 124.462 716.285 124.88C716.918 125.285 717.336 125.843 717.539 126.552H717.311V120.016H719.23V134H717.33V131.834H717.558C717.343 132.556 716.925 133.126 716.304 133.544C715.683 133.962 714.955 134.171 714.119 134.171ZM714.594 132.67C715.417 132.67 716.082 132.379 716.589 131.796C717.096 131.213 717.349 130.352 717.349 129.212C717.349 128.072 717.096 127.217 716.589 126.647C716.082 126.064 715.417 125.773 714.594 125.773C713.758 125.773 713.087 126.064 712.58 126.647C712.086 127.217 711.839 128.072 711.839 129.212C711.839 130.352 712.086 131.213 712.58 131.796C713.087 132.379 713.758 132.67 714.594 132.67Z" fill="#EEEEEE"/>
<circle cx="649" cy="86" r="33" fill="#CC0001"/>
<circle opacity="0.75" cx="690" cy="86" r="33" fill="#FE9900"/>
<path d="M163.125 190.355H163.625V189.855V168.605V168.105H163.125H141.875H141.375V168.605V189.855V190.355H141.875H163.125ZM195 190.355H195.5V189.855V179.23C195.5 173.077 190.528 168.105 184.375 168.105H173.75H173.25V168.605V189.855V190.355H173.75H195ZM173.75 231.855H173.25V232.355V253.605V254.105H173.75H184.375C190.528 254.105 195.5 249.133 195.5 242.98V232.355V231.855H195H173.75ZM141.875 231.855H141.375V232.355V253.605V254.105H141.875H163.125H163.625V253.605V232.355V231.855H163.125H141.875ZM110 231.855H109.5V232.355V242.98C109.5 249.133 114.472 254.105 120.625 254.105H131.25H131.75V253.605V232.355V231.855H131.25H110ZM110 199.98H109.5V200.48V221.73V222.23H110H195H195.5V221.73V200.48V199.98H195H110ZM131.75 168.605V168.105H131.25H120.625C114.472 168.105 109.5 173.077 109.5 179.23V189.855V190.355H110H131.25H131.75V189.855V168.605Z" fill="#B5A642" stroke="black"/>
<defs>
<filter id="filter0_d_11_6466" x="0" y="0" width="819" height="464" filterUnits="userSpaceOnUse" color-interpolation-filters="sRGB">
<feFlood flood-opacity="0" result="BackgroundImageFix"/>
<feColorMatrix in="SourceAlpha" type="matrix" values="0 0 0 0 0 0 0 0 0 0 0 0 0 0 0 0 0 0 127 0" result="hardAlpha"/>
<feOffset dx="10" dy="10"/>
<feGaussianBlur stdDeviation="12.5"/>
<feComposite in2="hardAlpha" operator="out"/>
<feColorMatrix type="matrix" values="0 0 0 0 0 0 0 0 0 0 0 0 0 0 0 0 0 0 1 0"/>
<feBlend mode="normal" in2="BackgroundImageFix" result="effect1_dropShadow_11_6466"/>
<feBlend mode="normal" in="SourceGraphic" in2="effect1_dropShadow_11_6466" result="shape"/>
</filter>
</defs>
</svg>
